<svg version="1.1" viewBox="0.0 0.0 800.0 600.0" fill="none" stroke="none" stroke-linecap="square" stroke-miterlimit="10" xmlns:xlink="http://www.w3.org/1999/xlink" xmlns="http://www.w3.org/2000/svg"><clipPath id="p.0"><path d="m0 0l800.0 0l0 600.0l-800.0 0l0 -600.0z" clip-rule="nonzero"/></clipPath><g clip-path="url(#p.0)"><path fill="#000000" fill-opacity="0.0" d="m0 0l800.0 0l0 600.0l-800.0 0z" fill-rule="evenodd"/><path fill="#f4cccc" d="m257.96738 177.0628l33.19101 -143.8248l70.61774 126.75038l-33.19101 143.82481z" fill-rule="evenodd"/><path fill="#000000" fill-opacity="0.0" d="m257.96738 177.0628l103.80875 -17.074417" fill-rule="evenodd"/><path fill="#000000" fill-opacity="0.0" d="m257.96738 177.0628l33.19101 -143.8248l70.61774 126.75038l-33.19101 143.82481z" fill-rule="evenodd"/><path fill="#f4cccc" d="m370.17908 169.3943l120.67651 -85.16076l-31.877075 141.52075l-120.67651 85.16077z" fill-rule="evenodd"/><path fill="#000000" fill-opacity="0.0" d="m370.17908 169.3943l88.79944 56.36" fill-rule="evenodd"/><path fill="#000000" fill-opacity="0.0" d="m370.17908 169.3943l120.67651 -85.16076l-31.877075 141.52075l-120.67651 85.16077z" fill-rule="evenodd"/><path fill="#f4cccc" d="m177.78566 260.1015l-70.910515 -129.48775l137.10083 47.797134l70.91052 129.48773z" fill-rule="evenodd"/><path fill="#000000" fill-opacity="0.0" d="m177.78566 260.1015l66.19032 -81.69061" fill-rule="evenodd"/><path fill="#000000" fill-opacity="0.0" d="m177.78566 260.1015l-70.910515 -129.48775l137.10083 47.797134l70.91052 129.48773z" fill-rule="evenodd"/><path fill="#f4cccc" d="m295.3911 464.7124l33.19101 -143.8248l70.61774 126.75037l-33.19104 143.8248z" fill-rule="evenodd"/><path fill="#000000" fill-opacity="0.0" d="m295.3911 464.7124l103.80875 -17.074432" fill-rule="evenodd"/><path fill="#000000" fill-opacity="0.0" d="m295.3911 464.7124l33.19101 -143.8248l70.61774 126.75037l-33.19104 143.8248z" fill-rule="evenodd"/><path fill="#f4cccc" d="m484.91986 342.28247l-145.11469 -27.75589l124.15317 -75.234116l145.11472 27.755905z" fill-rule="evenodd"/><path fill="#000000" fill-opacity="0.0" d="m484.91986 342.28247l-20.961517 -102.990005" fill-rule="evenodd"/><path fill="#000000" fill-opacity="0.0" d="m484.91986 342.28247l-145.11469 -27.75589l124.15317 -75.234116l145.11472 27.755905z" fill-rule="evenodd"/><path fill="#f4cccc" d="m418.38965 444.6322l-79.034485 -124.705475l139.87369 38.96344l79.034515 124.705475z" fill-rule="evenodd"/><path fill="#000000" fill-opacity="0.0" d="m418.38965 444.6322l60.839203 -85.742035" fill-rule="evenodd"/><path fill="#000000" fill-opacity="0.0" d="m418.38965 444.6322l-79.034485 -124.705475l139.87369 38.96344l79.034515 124.705475z" fill-rule="evenodd"/><path fill="#f4cccc" d="m186.40936 385.93198l-143.53712 -35.021973l127.7769 -68.89197l143.53714 35.021973z" fill-rule="evenodd"/><path fill="#000000" fill-opacity="0.0" d="m186.40936 385.93198l-15.760223 -103.91394" fill-rule="evenodd"/><path fill="#000000" fill-opacity="0.0" d="m186.40936 385.93198l-143.53712 -35.021973l127.7769 -68.89197l143.53714 35.021973z" fill-rule="evenodd"/><path fill="#f4cccc" d="m275.4482 463.15308l-126.90419 75.58905l42.73079 -138.63638l126.904205 -75.58902z" fill-rule="evenodd"/><path fill="#000000" fill-opacity="0.0" d="m275.4482 463.15308l-84.1734 -63.047333" fill-rule="evenodd"/><path fill="#000000" fill-opacity="0.0" d="m275.4482 463.15308l-126.90419 75.58905l42.73079 -138.63638l126.904205 -75.58902z" fill-rule="evenodd"/></g></svg>