<svg version="1.1" viewBox="0.0 0.0 960.0 540.0" fill="none" stroke="none" stroke-linecap="square" stroke-miterlimit="10" xmlns:xlink="http://www.w3.org/1999/xlink" xmlns="http://www.w3.org/2000/svg"><clipPath id="gde44778437_0_0.0"><path d="m0 0l960.0 0l0 540.0l-960.0 0l0 -540.0z" clip-rule="nonzero"/></clipPath><g clip-path="url(#gde44778437_0_0.0)"><path fill="#5642d6" d="m0 0l960.0 0l0 540.0l-960.0 0z" fill-rule="evenodd"/><path fill="#000000" fill-opacity="0.0" d="m28.125984 31.338583l275.62204 0l0 67.874016l-275.62204 0z" fill-rule="evenodd"/><path fill="#ffffff" d="m49.438484 78.73858q-2.40625 0 -5.3125 0.0625l-0.078125 -0.84375l2.890625 -0.859375q0.484375 -0.140625 0.5 -0.609375q0.046875 -1.484375 0.046875 -3.78125l0 -19.5l-6.90625 0l-1.734375 5.203125l-0.78125 0.125l-0.5 -6.984375l0.125 -0.15625q4.8125 0.078125 9.203125 0.078125l5.21875 0q4.375 0 9.234375 -0.078125l0.125 0.15625l-1.234375 6.859375l-0.78125 0.125l-1.25 -5.328125l-6.890625 0l0 19.5q0 2.296875 0.03125 3.78125q0.015625 0.46875 0.515625 0.609375l2.890625 0.859375l0.03125 0.84375q-3.03125 -0.0625 -5.34375 -0.0625zm21.53125 -8.84375q-4.265625 0 -5.828125 0.84375q-1.5625 0.828125 -1.5625 2.828125q0 1.84375 1.03125 2.625q1.03125 0.765625 2.8125 0.765625q2.015625 0 3.515625 -0.6875l0.03125 -6.375zm-9.46875 -8.046875q3.8125 -1.671875 6.734375 -1.671875q3.0 0 4.65625 1.5625q1.671875 1.5625 1.65625 4.515625l-0.09375 8.125q-0.015625 1.0 0.046875 1.609375q0.0625 0.59375 0.34375 0.921875q0.296875 0.328125 0.859375 0.453125q0.5625 0.125 1.515625 0.140625l0.109375 0.765625q-0.84375 0.328125 -2.0625 0.65625q-1.203125 0.34375 -1.640625 0.34375q-1.890625 0 -2.59375 -1.953125q-2.734375 1.96875 -5.15625 1.96875q-2.71875 0 -4.375 -1.328125q-1.640625 -1.34375 -1.640625 -3.796875q0 -3.0 2.6875 -4.421875q2.6875 -1.4375 8.421875 -1.4375l0.03125 -1.515625q0.015625 -2.1875 -1.125 -3.234375q-1.125 -1.0625 -3.46875 -1.0625q-1.78125 0 -4.453125 0.65625l-0.453125 -1.296875zm27.777344 0.3125q-1.140625 -0.3125 -2.46875 -0.3125q-1.828125 0 -2.953125 0.71875q-1.125 0.703125 -1.125 1.9375q0 1.1875 0.734375 1.875q0.734375 0.671875 2.71875 1.34375l1.609375 0.546875q2.6875 0.921875 3.953125 2.109375q1.265625 1.171875 1.265625 3.078125q0 2.71875 -2.109375 4.28125q-2.109375 1.546875 -5.34375 1.546875q-2.96875 0 -6.0625 -1.21875q0.65625 -2.53125 1.0625 -4.953125l0.765625 -0.125l1.40625 4.203125q1.109375 0.4375 2.828125 0.4375q1.828125 0 2.90625 -0.734375q1.078125 -0.75 1.078125 -2.109375q0 -1.25 -0.734375 -1.96875q-0.71875 -0.71875 -2.328125 -1.25l-2.03125 -0.6875q-2.640625 -0.875 -3.640625 -2.109375q-1.0 -1.25 -1.0 -3.078125q0 -2.5625 1.9375 -4.03125q1.9375 -1.484375 5.125 -1.484375q2.96875 0 5.390625 0.859375q-0.546875 2.234375 -1.0 4.71875l-0.734375 0.125l-1.25 -3.71875zm26.613281 16.640625q-2.609375 -0.0625 -3.875 -0.0625q-0.84375 0 -2.234375 0.046875q-0.71875 -1.203125 -1.71875 -2.5625q-2.6875 -3.78125 -5.796875 -7.375l7.046875 -6.828125l-2.171875 -0.609375l-0.078125 -0.78125q2.53125 0.0625 3.71875 0.0625q1.078125 0 4.078125 -0.0625l0.078125 0.796875q-1.96875 0.515625 -2.828125 0.90625q-0.859375 0.375 -2.015625 1.4375l-4.171875 3.875l6.28125 7.84375q1.0625 1.3125 1.65625 1.75q0.59375 0.421875 2.0 0.75l0.03125 0.8125zm-20.484375 -27.46875l-0.09375 -0.640625q3.453125 -0.671875 6.359375 -1.390625l0.1875 0.15625q-0.125 2.859375 -0.125 8.84375l0 12.78125q0 2.890625 0.046875 5.65625q0.03125 0.578125 0.5 0.6875l1.890625 0.5625l0.046875 0.8125q-2.34375 -0.0625 -4.265625 -0.0625q-1.90625 0 -4.53125 0.0625l-0.078125 -0.8125l2.3125 -0.671875q0.390625 -0.140625 0.421875 -0.59375q0.046875 -2.203125 0.046875 -4.921875l0 -8.03125q0 -10.125 -0.078125 -11.65625l-2.640625 -0.78125zm38.660164 21.40625q0 2.3125 0.03125 3.796875q0.015625 0.46875 0.515625 0.59375l2.6875 0.828125l0.046875 0.84375q-2.84375 -0.0625 -5.15625 -0.0625q-2.328125 0 -4.8437576 0.0625l-0.078125 -0.84375l2.3906326 -0.71875q0.515625 -0.15625 0.53125 -0.609375q0.046875 -1.578125 0.046875 -3.890625l0 -15.84375q0 -0.984375 -0.015625 -1.78125q-0.015625 -0.8125 -0.03125 -1.453125q-0.015625 -0.515625 -0.46875 -0.671875l-2.4218826 -0.75l-0.03125 -0.84375q2.5156326 0.078125 4.8437576 0.078125l4.734375 0q4.375 0 9.25 -0.078125l0.109375 0.15625l-1.125 6.03125l-0.78125 0.140625l-1.21875 -4.515625l-9.015625 0l0 11.15625l1.875 0q2.03125 0 4.53125 -0.046875q0.515625 -0.015625 0.65625 -0.5l0.796875 -2.640625l0.9375 -0.03125q-0.046875 2.734375 -0.046875 4.03125q0 1.28125 0.046875 3.984375l-0.9375 0.078125l-0.8125 -2.671875q-0.15625 -0.5 -0.59375 -0.53125q-2.546875 -0.03125 -4.609375 -0.03125l-1.84375 0l0 6.734375zm13.9375 -21.40625l-0.09375 -0.640625q3.453125 -0.671875 6.359375 -1.390625l0.1875 0.15625q-0.125 3.1875 -0.125 8.84375l0 12.71875q0 3.5 0.046875 5.625q0.046875 0.5625 0.546875 0.703125l2.125 0.640625l0.0625 0.8125q-2.640625 -0.0625 -4.5625 -0.0625q-1.90625 0 -4.53125 0.0625l-0.078125 -0.8125l2.21875 -0.640625q0.484375 -0.15625 0.515625 -0.625q0.046875 -2.203125 0.046875 -4.921875l0 -8.03125q0 -7.265625 -0.078125 -11.65625l-2.640625 -0.78125zm15.621094 18.1875q0 3.65625 1.359375 5.953125q1.375 2.28125 4.078125 2.28125q2.515625 0 3.828125 -2.015625q1.328125 -2.015625 1.328125 -5.984375q0 -3.734375 -1.390625 -5.875q-1.390625 -2.15625 -4.015625 -2.15625q-2.5 0 -3.84375 1.9375q-1.34375 1.9375 -1.34375 5.859375zm14.578125 -0.171875q0 4.453125 -2.6875 7.203125q-2.6875 2.734375 -6.828125 2.734375q-4.046875 0 -6.53125 -2.578125q-2.484375 -2.59375 -2.484375 -6.78125q0 -4.296875 2.59375 -7.015625q2.609375 -2.734375 6.90625 -2.734375q4.0625 0 6.546875 2.515625q2.484375 2.515625 2.484375 6.65625zm0.44921875 -8.71875q2.796875 0.0625 4.140625 0.0625q1.9375 0 4.375 -0.0625l0.078125 0.796875l-2.3125 0.625q1.3125 4.359375 3.3125 9.8125q0.421875 1.15625 0.796875 2.359375q0.375 -1.1875 0.796875 -2.34375q1.5625 -4.171875 2.359375 -6.515625q0.8125 -2.34375 1.546875 -4.59375l1.421875 -0.15625q0.75 2.359375 1.53125 4.734375q0.78125 2.359375 2.25 6.515625q0.46875 1.25 0.78125 2.359375q0.359375 -1.125 0.828125 -2.34375q2.171875 -5.484375 3.59375 -9.84375l-2.203125 -0.625l-0.078125 -0.796875q1.5625 0.0625 3.328125 0.0625q1.734375 0 3.15625 -0.0625l0.09375 0.796875l-1.5625 0.4375q-0.65625 0.1875 -0.96875 0.9375q-1.84375 4.421875 -3.265625 8.0q-1.421875 3.5625 -3.078125 8.0l-1.765625 0.171875q-1.1875 -3.4375 -1.984375 -5.59375q-0.78125 -2.171875 -1.703125 -4.703125q-0.390625 -1.03125 -0.671875 -2.0q-0.3125 0.9375 -0.703125 1.9375q-0.984375 2.59375 -1.84375 4.78125q-0.84375 2.1875 -1.984375 5.40625l-1.71875 0.171875q-1.65625 -4.609375 -3.03125 -8.15625q-1.359375 -3.5625 -3.078125 -8.046875q-0.265625 -0.71875 -1.0 -0.90625l-1.40625 -0.421875l-0.03125 -0.796875z" fill-rule="nonzero"/><path fill="#ffffff" d="m247.10498 91.60105l130.17325 0l0 93.22834l-130.17325 0z" fill-rule="evenodd"/><path stroke="#595959" stroke-width="1.0" stroke-linejoin="round" stroke-linecap="butt" d="m247.10498 91.60105l130.17325 0l0 93.22834l-130.17325 0z" fill-rule="evenodd"/><path fill="#ffffff" d="m78.750656 213.64305l0 0c0 -27.962143 22.484474 -50.62993 50.220474 -50.62993l0 0c13.31929 0 26.093063 5.3342133 35.51123 14.829163c9.418167 9.494949 14.709244 22.372864 14.709244 35.800766l0 0c0 27.962128 -22.484482 50.62993 -50.220474 50.62993l0 0c-27.736 0 -50.220474 -22.6678 -50.220474 -50.62993z" fill-rule="evenodd"/><path stroke="#595959" stroke-width="1.0" stroke-linejoin="round" stroke-linecap="butt" d="m78.750656 213.64305l0 0c0 -27.962143 22.484474 -50.62993 50.220474 -50.62993l0 0c13.31929 0 26.093063 5.3342133 35.51123 14.829163c9.418167 9.494949 14.709244 22.372864 14.709244 35.800766l0 0c0 27.962128 -22.484482 50.62993 -50.220474 50.62993l0 0c-27.736 0 -50.220474 -22.6678 -50.220474 -50.62993z" fill-rule="evenodd"/><path fill="#000000" fill-opacity="0.0" d="m93.6168 192.63518l70.70866 0l0 42.015747l-70.70866 0z" fill-rule="evenodd"/><path fill="#000000" d="m109.53867 207.6333q-0.953125 -0.328125 -1.75 -0.328125q-1.203125 0 -1.921875 0.59375q-0.71875 0.578125 -0.71875 1.625q0 0.578125 0.25 1.03125q0.25 0.453125 0.671875 0.796875q0.421875 0.328125 0.953125 0.59375q0.546875 0.265625 1.125 0.515625q0.625 0.265625 1.21875 0.578125q0.59375 0.296875 1.0625 0.71875q0.484375 0.40625 0.765625 0.984375q0.296875 0.5625 0.296875 1.328125q0 1.8125 -1.28125 2.78125q-1.265625 0.953125 -3.515625 0.953125q-1.453125 0 -3.203125 -0.5l-0.0625 -0.0625l0.453125 -3.109375l0.40625 -0.0625l0.640625 2.59375q0.96875 0.375 1.984375 0.375q1.34375 0 2.109375 -0.59375q0.765625 -0.609375 0.765625 -1.71875q0 -0.578125 -0.25 -1.015625q-0.25 -0.453125 -0.671875 -0.765625q-0.40625 -0.3125 -0.9375 -0.578125q-0.515625 -0.265625 -1.078125 -0.515625q-0.640625 -0.265625 -1.25 -0.578125q-0.59375 -0.328125 -1.09375 -0.75q-0.484375 -0.421875 -0.78125 -1.03125q-0.28125 -0.625 -0.28125 -1.453125q0 -1.640625 1.234375 -2.546875q1.234375 -0.90625 3.28125 -0.90625q1.4375 0 3.015625 0.34375l0.0625 0.0625l-0.546875 2.84375l-0.359375 0.0625l-0.59375 -2.265625zm5.854065 4.46875q-0.0625 3.078125 -0.0625 4.96875q0 0.9375 0.28125 1.3125q0.28125 0.359375 1.078125 0.359375q0.625 0 1.640625 -0.171875l0.0625 0.40625q-1.578125 0.796875 -2.828125 0.796875q-0.984375 0 -1.46875 -0.53125q-0.484375 -0.53125 -0.484375 -1.609375q0 -1.765625 0.0625 -5.578125l-1.25 -0.3125l-0.0625 -0.375l1.40625 -0.125l0.625 -2.203125q0.515625 -0.140625 0.9375 -0.265625l0.078125 0.0625q-0.015625 1.109375 -0.015625 2.0625l0 0.34375l2.734375 0l0 0.859375l-2.734375 0zm8.945541 3.328125q-2.0 0 -2.734375 0.390625q-0.71875 0.390625 -0.71875 1.328125q0 0.859375 0.484375 1.21875q0.484375 0.359375 1.3125 0.359375q0.9375 0 1.640625 -0.3125l0.015625 -2.984375zm-4.421875 -3.75q1.78125 -0.78125 3.140625 -0.78125q1.390625 0 2.171875 0.734375q0.78125 0.71875 0.765625 2.09375l-0.046875 3.796875q0 0.46875 0.03125 0.75q0.03125 0.28125 0.15625 0.4375q0.140625 0.140625 0.40625 0.203125q0.265625 0.0625 0.703125 0.0625l0.046875 0.359375q-0.390625 0.15625 -0.953125 0.3125q-0.5625 0.15625 -0.765625 0.15625q-0.890625 0 -1.21875 -0.921875q-1.265625 0.921875 -2.390625 0.921875q-1.265625 0 -2.046875 -0.625q-0.765625 -0.625 -0.765625 -1.75q0 -1.40625 1.25 -2.0625q1.25 -0.671875 3.9375 -0.671875l0 -0.71875q0.015625 -1.015625 -0.515625 -1.5q-0.53125 -0.5 -1.625 -0.5q-0.828125 0 -2.078125 0.3125l-0.203125 -0.609375zm8.282753 -0.140625q1.515625 -0.296875 2.890625 -0.640625l0.078125 0.0625l0 1.0625q1.6875 -1.125 3.3125 -1.125l0.046875 0.0625q-0.265625 1.359375 -0.515625 2.8125l-0.375 0.0625q-0.25 -0.78125 -0.484375 -1.25q-0.234375 -0.46875 -0.75 -0.46875q-0.484375 0 -1.234375 0.453125l0 3.953125q0 1.421875 0.03125 2.03125q0 0.25 0.21875 0.3125l1.21875 0.34375l0.015625 0.375q-1.40625 -0.03125 -2.3125 -0.03125q-0.890625 0 -2.109375 0.03125l-0.03125 -0.375l1.046875 -0.3125q0.21875 -0.078125 0.234375 -0.28125q0.015625 -0.390625 0.015625 -1.125l0 -3.109375q0 -1.484375 -0.046875 -2.203125l-1.203125 -0.328125l-0.046875 -0.3125zm9.88533 0.5625q-0.0625 3.078125 -0.0625 4.96875q0 0.9375 0.28125 1.3125q0.28125 0.359375 1.078125 0.359375q0.625 0 1.640625 -0.171875l0.0625 0.40625q-1.578125 0.796875 -2.828125 0.796875q-0.984375 0 -1.46875 -0.53125q-0.484375 -0.53125 -0.484375 -1.609375q0 -1.765625 0.0625 -5.578125l-1.25 -0.3125l-0.0625 -0.375l1.40625 -0.125l0.625 -2.203125q0.515625 -0.140625 0.9375 -0.265625l0.078125 0.0625q-0.015625 1.109375 -0.015625 2.0625l0 0.34375l2.734375 0l0 0.859375l-2.734375 0z" fill-rule="nonzero"/><path fill="#000000" fill-opacity="0.0" d="m243.07349 117.20735l134.20474 0l0 42.015747l-134.20474 0z" fill-rule="evenodd"/><path fill="#000000" d="m258.99536 132.20547q-0.953125 -0.328125 -1.75 -0.328125q-1.203125 0 -1.921875 0.59375q-0.71875 0.578125 -0.71875 1.625q0 0.578125 0.25 1.03125q0.25 0.453125 0.671875 0.796875q0.421875 0.328125 0.953125 0.59375q0.546875 0.265625 1.125 0.515625q0.625 0.265625 1.21875 0.578125q0.59375 0.296875 1.0625 0.71875q0.484375 0.40625 0.765625 0.984375q0.296875 0.5625 0.296875 1.328125q0 1.8125 -1.28125 2.78125q-1.265625 0.953125 -3.515625 0.953125q-1.453125 0 -3.203125 -0.5l-0.0625 -0.0625l0.453125 -3.109375l0.40625 -0.0625l0.640625 2.59375q0.96875 0.375 1.984375 0.375q1.34375 0 2.109375 -0.59375q0.765625 -0.609375 0.765625 -1.71875q0 -0.578125 -0.25 -1.015625q-0.25 -0.453125 -0.671875 -0.765625q-0.40625 -0.3125 -0.9375 -0.578125q-0.515625 -0.265625 -1.078125 -0.515625q-0.640625 -0.265625 -1.25 -0.578125q-0.59375 -0.328125 -1.09375 -0.75q-0.484375 -0.421875 -0.78125 -1.03125q-0.28125 -0.625 -0.28125 -1.453125q0 -1.640625 1.234375 -2.546875q1.234375 -0.90625 3.28125 -0.90625q1.4375 0 3.015625 0.34375l0.0625 0.0625l-0.546875 2.84375l-0.359375 0.0625l-0.59375 -2.265625zm6.197815 0.046875q0 0.484375 -0.3125 0.796875q-0.296875 0.296875 -0.765625 0.296875q-0.453125 0 -0.75 -0.28125q-0.28125 -0.28125 -0.28125 -0.75q0 -0.5 0.296875 -0.78125q0.3125 -0.28125 0.796875 -0.28125q0.453125 0 0.734375 0.265625q0.28125 0.25 0.28125 0.734375zm-3.078125 3.859375q1.59375 -0.296875 2.953125 -0.640625l0.078125 0.0625q-0.0625 1.1875 -0.0625 2.609375l0 3.5q0 1.09375 0.03125 1.515625q0.015625 0.234375 0.21875 0.3125l1.0625 0.3125l0.015625 0.375q-1.25 -0.03125 -2.15625 -0.03125q-0.890625 0 -2.109375 0.03125l-0.046875 -0.375l1.0625 -0.3125q0.203125 -0.078125 0.21875 -0.28125q0.03125 -0.359375 0.03125 -1.1875l0 -3.046875q0 -1.203125 -0.046875 -2.203125l-1.203125 -0.328125l-0.046875 -0.3125zm7.3616333 2.359375q0 1.1875 0.484375 1.84375q0.484375 0.640625 1.390625 0.640625q0.875 0 1.3125 -0.609375q0.4375 -0.609375 0.4375 -1.78125q0 -1.109375 -0.46875 -1.75q-0.46875 -0.65625 -1.390625 -0.65625q-0.875 0 -1.328125 0.59375q-0.4375 0.59375 -0.4375 1.71875zm-0.109375 6.015625q-0.625 0.9375 -0.625 1.71875q0 0.796875 0.640625 1.234375q0.65625 0.453125 1.765625 0.453125q1.328125 0 2.3125 -0.59375q1.0 -0.578125 1.0 -1.625q0 -0.578125 -0.5 -0.890625q-0.484375 -0.3125 -1.828125 -0.3125q-0.484375 0 -1.0625 0.015625q-0.5625 0.03125 -1.09375 0.03125q-0.28125 0 -0.609375 -0.03125zm4.75 -7.859375q0.6875 0.75 0.6875 1.796875q0 1.46875 -1.03125 2.34375q-1.015625 0.859375 -2.546875 0.859375q-0.875 0 -1.578125 -0.265625q-0.484375 0.78125 -0.484375 1.25q0 0.234375 0.25 0.328125q0.25 0.078125 0.921875 0.078125q0.515625 0 1.1875 -0.015625q0.6875 -0.03125 1.28125 -0.03125q1.453125 0 2.296875 0.5625q0.84375 0.546875 0.84375 1.625q0 1.640625 -1.546875 2.578125q-1.546875 0.953125 -3.515625 0.953125q-1.609375 0 -2.578125 -0.546875q-0.953125 -0.53125 -0.953125 -1.40625q0 -1.046875 1.484375 -2.34375q-0.9375 -0.359375 -0.9375 -0.953125q0 -0.828125 1.296875 -2.3125q-1.421875 -0.859375 -1.421875 -2.5q0 -1.421875 1.0 -2.28125q1.015625 -0.875 2.609375 -0.875q0.421875 0 1.140625 0.109375q0.6875 0.125 1.0625 0.125q1.375 0 2.53125 -0.015625l0.046875 0.359375l-2.046875 0.578125zm2.755127 -0.515625q1.53125 -0.296875 2.890625 -0.640625l0.078125 0.0625l0 1.0625q1.59375 -1.125 2.953125 -1.125q1.296875 0 2.03125 0.734375q0.734375 0.71875 0.734375 2.046875l0 3.21875q0 1.140625 0.015625 1.6875q0.015625 0.234375 0.234375 0.3125l1.015625 0.3125l0.015625 0.375q-1.203125 -0.03125 -2.09375 -0.03125q-0.890625 0 -1.984375 0.03125l-0.03125 -0.375l0.90625 -0.265625q0.203125 -0.078125 0.234375 -0.28125q0 -0.125 0 -0.578125l0 -3.96875q0 -1.125 -0.546875 -1.609375q-0.53125 -0.484375 -1.578125 -0.484375q-0.921875 0 -1.90625 0.53125l0 3.96875q0 1.140625 0.03125 2.09375q0 0.25 0.203125 0.3125l0.953125 0.28125l0.015625 0.375q-1.125 -0.03125 -2.03125 -0.03125q-0.890625 0 -2.109375 0.03125l-0.03125 -0.375l1.078125 -0.3125q0.1875 -0.078125 0.203125 -0.28125q0.015625 -0.578125 0.015625 -1.125l0 -3.109375q0 -1.1875 -0.046875 -2.203125l-1.203125 -0.328125l-0.046875 -0.3125zm21.712677 7.21875q-1.421875 1.046875 -2.84375 1.046875q-1.421875 0 -2.140625 -0.71875q-0.71875 -0.734375 -0.71875 -2.046875l0 -1.9375q0 -1.953125 -0.03125 -2.921875l-1.21875 -0.328125l-0.046875 -0.3125q1.59375 -0.296875 2.953125 -0.640625l0.078125 0.0625q-0.046875 1.0625 -0.046875 2.75l0 2.890625q0 1.109375 0.515625 1.609375q0.515625 0.484375 1.46875 0.484375q0.953125 0 1.9375 -0.5l0 -3.875q0 -1.28125 -0.03125 -2.140625l-1.203125 -0.328125l-0.046875 -0.3125q1.578125 -0.296875 2.9375 -0.640625l0.09375 0.0625q-0.0625 1.09375 -0.0625 2.796875q0 3.3125 0.015625 4.03125q0.015625 0.375 0.0625 0.609375q0.046875 0.234375 0.171875 0.359375q0.125 0.109375 0.375 0.171875q0.25 0.046875 0.671875 0.046875l0.046875 0.359375q-0.421875 0.171875 -0.96875 0.3125q-0.546875 0.15625 -0.75 0.15625q-0.921875 0 -1.21875 -1.046875zm3.7622986 -6.90625l-0.046875 -0.3125q1.53125 -0.296875 2.890625 -0.640625l0.09375 0.0625l0 0.890625q1.390625 -0.953125 2.6875 -0.953125q1.703125 0 2.6875 1.140625q1.0 1.125 1.0 2.9375q0 2.234375 -1.28125 3.53125q-1.28125 1.296875 -3.640625 1.296875q-0.703125 0 -1.453125 -0.125l0 1.984375q0 0.921875 0.015625 1.28125q0.015625 0.265625 0.25 0.328125l1.1875 0.328125l0.03125 0.375q-1.421875 -0.015625 -2.3125 -0.015625q-0.890625 0 -2.125 0.015625l-0.03125 -0.375l1.046875 -0.296875q0.21875 -0.0625 0.234375 -0.28125q0.015625 -0.671875 0.015625 -2.015625l0 -3.71875q0 -4.03125 -0.03125 -5.09375l-1.21875 -0.34375zm2.9375 7.0q0.796875 0.171875 1.53125 0.171875q1.515625 0 2.265625 -0.9375q0.765625 -0.953125 0.765625 -2.71875q0 -1.671875 -0.734375 -2.515625q-0.71875 -0.84375 -2.078125 -0.84375q-0.984375 0 -1.75 0.390625l0 6.453125zm8.111359 2.765625l4.609375 -15.046875l1.09375 0l-4.609375 15.046875l-1.09375 0zm10.57785 -12.28125l0 7.40625q0 1.015625 0.015625 2.0l4.4375 0l1.171875 -2.421875l0.40625 -0.0625l-0.203125 3.265625l-0.046875 0.0625q-2.359375 -0.03125 -4.375 -0.03125l-2.28125 0q-1.09375 0 -2.265625 0.03125l-0.03125 -0.390625l1.125 -0.34375q0.21875 -0.0625 0.25 -0.28125q0 -0.359375 0 -0.8125q0.015625 -0.453125 0.015625 -1.0l0 -7.390625q0 -0.46875 -0.015625 -0.828125q0 -0.375 0 -0.6875q-0.015625 -0.234375 -0.21875 -0.296875l-1.140625 -0.359375l-0.015625 -0.390625q1.171875 0.03125 2.265625 0.03125q1.09375 0 2.25 -0.03125l0.046875 0.390625l-1.140625 0.328125q-0.21875 0.0625 -0.234375 0.296875q0 0.3125 -0.015625 0.921875q0 0.609375 0 0.59375zm9.094452 5.921875q0 1.703125 0.625 2.78125q0.640625 1.0625 1.90625 1.0625q1.171875 0 1.78125 -0.9375q0.625 -0.953125 0.625 -2.796875q0 -1.75 -0.65625 -2.75q-0.640625 -1.0 -1.875 -1.0q-1.15625 0 -1.78125 0.90625q-0.625 0.90625 -0.625 2.734375zm6.796875 -0.078125q0 2.0625 -1.265625 3.34375q-1.25 1.28125 -3.171875 1.28125q-1.890625 0 -3.0625 -1.203125q-1.15625 -1.203125 -1.15625 -3.15625q0 -2.0 1.21875 -3.265625q1.21875 -1.28125 3.21875 -1.28125q1.90625 0 3.0625 1.171875q1.15625 1.171875 1.15625 3.109375zm3.3342285 -1.28125q0 1.1875 0.484375 1.84375q0.484375 0.640625 1.390625 0.640625q0.875 0 1.3125 -0.609375q0.4375 -0.609375 0.4375 -1.78125q0 -1.109375 -0.46875 -1.75q-0.46875 -0.65625 -1.390625 -0.65625q-0.875 0 -1.328125 0.59375q-0.4375 0.59375 -0.4375 1.71875zm-0.109375 6.015625q-0.625 0.9375 -0.625 1.71875q0 0.796875 0.640625 1.234375q0.65625 0.453125 1.765625 0.453125q1.328125 0 2.3125 -0.59375q1.0 -0.578125 1.0 -1.625q0 -0.578125 -0.5 -0.890625q-0.484375 -0.3125 -1.828125 -0.3125q-0.484375 0 -1.0625 0.015625q-0.5625 0.03125 -1.09375 0.03125q-0.28125 0 -0.609375 -0.03125zm4.75 -7.859375q0.6875 0.75 0.6875 1.796875q0 1.46875 -1.03125 2.34375q-1.015625 0.859375 -2.546875 0.859375q-0.875 0 -1.578125 -0.265625q-0.484375 0.78125 -0.484375 1.25q0 0.234375 0.25 0.328125q0.25 0.078125 0.921875 0.078125q0.515625 0 1.1875 -0.015625q0.6875 -0.03125 1.28125 -0.03125q1.453125 0 2.296875 0.5625q0.84375 0.546875 0.84375 1.625q0 1.640625 -1.546875 2.578125q-1.546875 0.953125 -3.515625 0.953125q-1.609375 0 -2.578125 -0.546875q-0.953125 -0.53125 -0.953125 -1.40625q0 -1.046875 1.484375 -2.34375q-0.9375 -0.359375 -0.9375 -0.953125q0 -0.828125 1.296875 -2.3125q-1.421875 -0.859375 -1.421875 -2.5q0 -1.421875 1.0 -2.28125q1.015625 -0.875 2.609375 -0.875q0.421875 0 1.140625 0.109375q0.6875 0.125 1.0625 0.125q1.375 0 2.53125 -0.015625l0.046875 0.359375l-2.046875 0.578125zm5.833252 -4.375q0 0.484375 -0.3125 0.796875q-0.296875 0.296875 -0.765625 0.296875q-0.453125 0 -0.75 -0.28125q-0.28125 -0.28125 -0.28125 -0.75q0 -0.5 0.296875 -0.78125q0.3125 -0.28125 0.796875 -0.28125q0.453125 0 0.734375 0.265625q0.28125 0.25 0.28125 0.734375zm-3.078125 3.859375q1.59375 -0.296875 2.953125 -0.640625l0.078125 0.0625q-0.0625 1.1875 -0.0625 2.609375l0 3.5q0 1.09375 0.03125 1.515625q0.015625 0.234375 0.21875 0.3125l1.0625 0.3125l0.015625 0.375q-1.25 -0.03125 -2.15625 -0.03125q-0.890625 0 -2.109375 0.03125l-0.046875 -0.375l1.0625 -0.3125q0.203125 -0.078125 0.21875 -0.28125q0.03125 -0.359375 0.03125 -1.1875l0 -3.046875q0 -1.203125 -0.046875 -2.203125l-1.203125 -0.328125l-0.046875 -0.3125zm5.2835083 0q1.53125 -0.296875 2.890625 -0.640625l0.078125 0.0625l0 1.0625q1.59375 -1.125 2.953125 -1.125q1.296875 0 2.03125 0.734375q0.734375 0.71875 0.734375 2.046875l0 3.21875q0 1.140625 0.015625 1.6875q0.015625 0.234375 0.234375 0.3125l1.015625 0.3125l0.015625 0.375q-1.203125 -0.03125 -2.09375 -0.03125q-0.890625 0 -1.984375 0.03125l-0.03125 -0.375l0.90625 -0.265625q0.203125 -0.078125 0.234375 -0.28125q0 -0.125 0 -0.578125l0 -3.96875q0 -1.125 -0.546875 -1.609375q-0.53125 -0.484375 -1.578125 -0.484375q-0.921875 0 -1.90625 0.53125l0 3.96875q0 1.140625 0.03125 2.09375q0 0.25 0.203125 0.3125l0.953125 0.28125l0.015625 0.375q-1.125 -0.03125 -2.03125 -0.03125q-0.890625 0 -2.109375 0.03125l-0.03125 -0.375l1.078125 -0.3125q0.1875 -0.078125 0.203125 -0.28125q0.015625 -0.578125 0.015625 -1.125l0 -3.109375q0 -1.1875 -0.046875 -2.203125l-1.203125 -0.328125l-0.046875 -0.3125z" fill-rule="nonzero"/><path fill="#ffffff" d="m491.7848 88.385826l130.17322 0l0 93.22834l-130.17322 0z" fill-rule="evenodd"/><path stroke="#595959" stroke-width="1.0" stroke-linejoin="round" stroke-linecap="butt" d="m491.7848 88.385826l130.17322 0l0 93.22834l-130.17322 0z" fill-rule="evenodd"/><path fill="#000000" fill-opacity="0.0" d="m491.7848 114.79527l155.08661 0l0 40.409454l-155.08661 0z" fill-rule="evenodd"/><path fill="#000000" d="m510.75354 131.54465l-0.34375 0.046875l-0.609375 -2.21875q-1.046875 -0.265625 -1.90625 -0.265625q-2.078125 0 -3.265625 1.453125q-1.171875 1.4375 -1.171875 3.75q0 2.46875 1.34375 3.953125q1.359375 1.46875 3.75 1.46875q1.34375 0 2.84375 -0.53125l0.078125 0.390625q-1.65625 1.140625 -3.765625 1.140625q-2.734375 0 -4.40625 -1.65625q-1.671875 -1.671875 -1.671875 -4.390625q0 -2.90625 1.84375 -4.59375q1.84375 -1.703125 4.8125 -1.703125q1.4375 0 2.9375 0.359375l0.046875 0.0625l-0.515625 2.734375zm3.4816284 4.890625q0 1.59375 0.59375 2.59375q0.59375 0.984375 1.765625 0.984375q1.09375 0 1.65625 -0.875q0.578125 -0.875 0.578125 -2.59375q0 -1.625 -0.609375 -2.546875q-0.59375 -0.9375 -1.734375 -0.9375q-1.09375 0 -1.671875 0.84375q-0.578125 0.84375 -0.578125 2.53125zm6.3125 -0.0625q0 1.921875 -1.171875 3.109375q-1.15625 1.1875 -2.953125 1.1875q-1.75 0 -2.828125 -1.109375q-1.078125 -1.125 -1.078125 -2.9375q0 -1.859375 1.125 -3.03125q1.140625 -1.1875 3.0 -1.1875q1.765625 0 2.828125 1.09375q1.078125 1.078125 1.078125 2.875zm8.944458 -2.328125q0.109375 0.40625 0.109375 0.921875l0 3.015625q0 0.984375 0.015625 1.59375q0.015625 0.21875 0.21875 0.296875l0.859375 0.234375l0.015625 0.359375q-1.03125 -0.03125 -1.859375 -0.03125q-0.828125 0 -1.84375 0.03125l-0.03125 -0.359375l0.796875 -0.234375q0.25 -0.078125 0.25 -0.265625q0.015625 -0.125 0.015625 -0.53125l0 -3.6875q0 -1.046875 -0.484375 -1.5q-0.46875 -0.453125 -1.390625 -0.453125q-0.828125 0 -1.6875 0.5l0 3.6875q0 1.0625 0.03125 1.9375q0 0.25 0.171875 0.296875l0.890625 0.25l0.015625 0.359375q-1.046875 -0.03125 -1.875 -0.03125q-0.828125 0 -1.953125 0.03125l-0.046875 -0.359375l0.984375 -0.28125q0.203125 -0.0625 0.21875 -0.265625q0 -0.4375 0 -1.03125l0 -2.890625q0 -1.109375 -0.03125 -2.0625l-1.125 -0.296875l-0.046875 -0.296875q1.40625 -0.265625 2.6875 -0.578125l0.078125 0.046875l0 0.984375q1.390625 -1.03125 2.625 -1.03125q1.53125 0 2.203125 1.171875q1.34375 -1.171875 2.90625 -1.171875q1.171875 0 1.828125 0.671875q0.671875 0.65625 0.671875 1.890625l0 2.984375q0 1.078125 0.015625 1.578125q0.015625 0.234375 0.234375 0.296875l0.9375 0.28125l0.015625 0.359375q-1.109375 -0.03125 -1.9375 -0.03125q-0.84375 0 -1.859375 0.03125l-0.03125 -0.359375l0.84375 -0.234375q0.1875 -0.078125 0.21875 -0.265625q0.015625 -0.125 0.015625 -0.53125l0 -3.6875q0 -1.046875 -0.484375 -1.5q-0.484375 -0.453125 -1.421875 -0.453125q-0.953125 0 -1.765625 0.609375zm7.1035767 -0.765625l-0.03125 -0.296875q1.421875 -0.265625 2.671875 -0.578125l0.09375 0.046875l0 0.828125q1.28125 -0.875 2.5 -0.875q1.578125 0 2.5 1.046875q0.921875 1.046875 0.921875 2.734375q0 2.078125 -1.1875 3.28125q-1.1875 1.203125 -3.390625 1.203125q-0.640625 0 -1.34375 -0.125l0 1.859375q0 0.84375 0.015625 1.171875q0.015625 0.265625 0.21875 0.3125l1.109375 0.3125l0.03125 0.34375q-1.328125 -0.015625 -2.15625 -0.015625q-0.828125 0 -1.953125 0.015625l-0.03125 -0.34375l0.96875 -0.28125q0.203125 -0.0625 0.203125 -0.265625q0.015625 -0.625 0.015625 -1.875l0 -3.4375q0 -3.75 -0.03125 -4.75l-1.125 -0.3125zm2.734375 6.5q0.734375 0.171875 1.421875 0.171875q1.40625 0 2.109375 -0.875q0.703125 -0.890625 0.703125 -2.53125q0 -1.546875 -0.671875 -2.328125q-0.671875 -0.796875 -1.9375 -0.796875q-0.921875 0 -1.625 0.375l0 5.984375zm11.821289 -3.171875q-1.84375 0 -2.53125 0.359375q-0.671875 0.359375 -0.671875 1.234375q0 0.796875 0.4375 1.140625q0.453125 0.328125 1.234375 0.328125q0.859375 0 1.515625 -0.296875l0.015625 -2.765625zm-4.109375 -3.484375q1.65625 -0.71875 2.921875 -0.71875q1.296875 0 2.015625 0.671875q0.734375 0.671875 0.71875 1.953125l-0.046875 3.515625q0 0.4375 0.03125 0.703125q0.03125 0.25 0.140625 0.390625q0.125 0.140625 0.375 0.203125q0.25 0.046875 0.65625 0.0625l0.046875 0.328125q-0.359375 0.140625 -0.890625 0.28125q-0.515625 0.15625 -0.703125 0.15625q-0.828125 0 -1.125 -0.859375q-1.1875 0.859375 -2.234375 0.859375q-1.171875 0 -1.890625 -0.578125q-0.71875 -0.578125 -0.71875 -1.640625q0 -1.296875 1.15625 -1.90625q1.171875 -0.625 3.65625 -0.625l0.015625 -0.65625q0 -0.953125 -0.5 -1.40625q-0.484375 -0.46875 -1.5 -0.46875q-0.765625 0 -1.921875 0.296875l-0.203125 -0.5625zm7.6921387 -0.140625q1.421875 -0.265625 2.6875 -0.578125l0.078125 0.046875l0 1.0q1.578125 -1.046875 3.078125 -1.046875l0.046875 0.046875q-0.25 1.265625 -0.484375 2.609375l-0.34375 0.0625q-0.234375 -0.71875 -0.453125 -1.15625q-0.21875 -0.4375 -0.6875 -0.4375q-0.46875 0 -1.15625 0.421875l0 3.671875q0 1.3125 0.03125 1.875q0 0.234375 0.203125 0.296875l1.125 0.3125l0.03125 0.359375q-1.328125 -0.03125 -2.15625 -0.03125q-0.828125 0 -1.953125 0.03125l-0.046875 -0.359375l0.984375 -0.28125q0.203125 -0.0625 0.21875 -0.265625q0 -0.359375 0 -1.03125l0 -2.890625q0 -1.375 -0.03125 -2.0625l-1.125 -0.296875l-0.046875 -0.296875zm13.5286255 6.859375q-0.71875 0.4375 -1.484375 0.625q-0.75 0.203125 -1.40625 0.203125q-1.859375 0 -2.96875 -1.0625q-1.109375 -1.0625 -1.109375 -2.953125q0 -1.875 1.0625 -3.0625q1.0625 -1.1875 2.84375 -1.1875q1.484375 0 2.3125 0.890625q0.828125 0.890625 0.828125 2.46875q0 0.234375 -0.015625 0.46875l-5.375 0q0 1.828125 0.859375 2.609375q0.859375 0.78125 2.671875 0.78125q0.8125 0 1.734375 -0.15625l0.046875 0.375zm-1.59375 -4.3125l0 -0.25q0 -1.203125 -0.390625 -1.71875q-0.390625 -0.515625 -1.140625 -0.515625q-1.015625 0 -1.546875 0.734375q-0.53125 0.71875 -0.59375 1.75l3.671875 0zm9.976013 2.3125q0 0.5 0 0.921875q0 0.40625 0.015625 0.75q0 0.21875 0.296875 0.28125l0.953125 0.296875l0.015625 0.375q-1.09375 -0.03125 -2.09375 -0.03125q-1.03125 0 -2.109375 0.03125l-0.03125 -0.375l1.046875 -0.3125q0.203125 -0.046875 0.21875 -0.25q0.015625 -0.34375 0.015625 -0.765625q0 -0.421875 0 -0.921875l0 -6.859375q0 -0.4375 0 -0.78125q0 -0.34375 -0.015625 -0.625q0 -0.21875 -0.203125 -0.296875l-1.046875 -0.328125l-0.015625 -0.359375q1.09375 0.03125 2.09375 0.03125q1.015625 0 2.109375 -0.03125l0.03125 0.359375l-1.046875 0.3125q-0.203125 0.046875 -0.21875 0.265625q-0.015625 0.296875 -0.015625 0.65625q0 0.34375 0 0.75l0 6.90625zm4.7156982 -4.328125q-0.046875 2.859375 -0.046875 4.609375q0 0.875 0.25 1.21875q0.265625 0.328125 1.0 0.328125q0.59375 0 1.53125 -0.140625l0.046875 0.375q-1.46875 0.734375 -2.609375 0.734375q-0.921875 0 -1.375 -0.484375q-0.453125 -0.5 -0.453125 -1.5q0 -1.640625 0.0625 -5.1875l-1.171875 -0.296875l-0.046875 -0.34375l1.296875 -0.109375l0.59375 -2.046875q0.46875 -0.125 0.859375 -0.25l0.078125 0.0625q-0.015625 1.03125 -0.015625 1.921875l0 0.3125l2.546875 0l0 0.796875l-2.546875 0zm10.457153 6.328125q-0.71875 0.4375 -1.484375 0.625q-0.75 0.203125 -1.40625 0.203125q-1.859375 0 -2.96875 -1.0625q-1.109375 -1.0625 -1.109375 -2.953125q0 -1.875 1.0625 -3.0625q1.0625 -1.1875 2.84375 -1.1875q1.484375 0 2.3125 0.890625q0.828125 0.890625 0.828125 2.46875q0 0.234375 -0.015625 0.46875l-5.375 0q0 1.828125 0.859375 2.609375q0.859375 0.78125 2.671875 0.78125q0.8125 0 1.734375 -0.15625l0.046875 0.375zm-1.59375 -4.3125l0 -0.25q0 -1.203125 -0.390625 -1.71875q-0.390625 -0.515625 -1.140625 -0.515625q-1.015625 0 -1.546875 0.734375q-0.53125 0.71875 -0.59375 1.75l3.671875 0zm10.534607 -1.484375q0.109375 0.40625 0.109375 0.921875l0 3.015625q0 0.984375 0.015625 1.59375q0.015625 0.21875 0.21875 0.296875l0.859375 0.234375l0.015625 0.359375q-1.03125 -0.03125 -1.859375 -0.03125q-0.828125 0 -1.84375 0.03125l-0.03125 -0.359375l0.796875 -0.234375q0.25 -0.078125 0.25 -0.265625q0.015625 -0.125 0.015625 -0.53125l0 -3.6875q0 -1.046875 -0.484375 -1.5q-0.46875 -0.453125 -1.390625 -0.453125q-0.828125 0 -1.6875 0.5l0 3.6875q0 1.0625 0.03125 1.9375q0 0.25 0.171875 0.296875l0.890625 0.25l0.015625 0.359375q-1.046875 -0.03125 -1.875 -0.03125q-0.828125 0 -1.953125 0.03125l-0.046875 -0.359375l0.984375 -0.28125q0.203125 -0.0625 0.21875 -0.265625q0 -0.4375 0 -1.03125l0 -2.890625q0 -1.109375 -0.03125 -2.0625l-1.125 -0.296875l-0.046875 -0.296875q1.40625 -0.265625 2.6875 -0.578125l0.078125 0.046875l0 0.984375q1.390625 -1.03125 2.625 -1.03125q1.53125 0 2.203125 1.171875q1.34375 -1.171875 2.90625 -1.171875q1.171875 0 1.828125 0.671875q0.671875 0.65625 0.671875 1.890625l0 2.984375q0 1.078125 0.015625 1.578125q0.015625 0.234375 0.234375 0.296875l0.9375 0.28125l0.015625 0.359375q-1.109375 -0.03125 -1.9375 -0.03125q-0.84375 0 -1.859375 0.03125l-0.03125 -0.359375l0.84375 -0.234375q0.1875 -0.078125 0.21875 -0.265625q0.015625 -0.125 0.015625 -0.53125l0 -3.6875q0 -1.046875 -0.484375 -1.5q-0.484375 -0.453125 -1.421875 -0.453125q-0.953125 0 -1.765625 0.609375zm11.572327 -0.796875q-0.484375 -0.125 -1.0625 -0.125q-0.796875 0 -1.28125 0.3125q-0.484375 0.296875 -0.484375 0.828125q0 0.515625 0.3125 0.8125q0.3125 0.296875 1.1875 0.59375l0.6875 0.234375q1.171875 0.390625 1.71875 0.90625q0.546875 0.515625 0.546875 1.34375q0 1.171875 -0.921875 1.84375q-0.90625 0.671875 -2.3125 0.671875q-1.28125 0 -2.625 -0.515625q0.28125 -1.109375 0.46875 -2.15625l0.328125 -0.046875l0.609375 1.8125q0.484375 0.1875 1.21875 0.1875q0.796875 0 1.265625 -0.3125q0.46875 -0.328125 0.46875 -0.90625q0 -0.546875 -0.328125 -0.859375q-0.3125 -0.3125 -1.0 -0.546875l-0.890625 -0.296875q-1.140625 -0.375 -1.578125 -0.90625q-0.421875 -0.546875 -0.421875 -1.34375q0 -1.109375 0.828125 -1.734375q0.84375 -0.640625 2.234375 -0.640625q1.28125 0 2.328125 0.359375q-0.234375 0.96875 -0.4375 2.046875l-0.3125 0.0625l-0.546875 -1.625z" fill-rule="nonzero"/><path fill="#ffffff" d="m710.6142 88.385826l130.17322 0l0 93.22834l-130.17322 0z" fill-rule="evenodd"/><path stroke="#595959" stroke-width="1.0" stroke-linejoin="round" stroke-linecap="butt" d="m710.6142 88.385826l130.17322 0l0 93.22834l-130.17322 0z" fill-rule="evenodd"/><path fill="#000000" fill-opacity="0.0" d="m710.6142 114.79527l155.08661 0l0 40.409454l-155.08661 0z" fill-rule="evenodd"/><path fill="#000000" d="m723.39545 134.71652q0.578125 0.09375 1.15625 0.09375q1.359375 0 2.0625 -0.6875q0.703125 -0.703125 0.703125 -2.140625q0 -1.375 -0.671875 -2.046875q-0.671875 -0.6875 -2.109375 -0.6875q-0.578125 0 -1.140625 0.0625l0 5.40625zm0 3.125q0 0.5 0 0.90625q0 0.40625 0.015625 0.734375q0 0.1875 0.21875 0.265625l1.15625 0.34375l0.015625 0.375q-1.21875 -0.03125 -2.21875 -0.03125q-1.03125 0 -2.109375 0.03125l-0.03125 -0.375l1.046875 -0.3125q0.21875 -0.0625 0.21875 -0.25q0.015625 -0.34375 0.015625 -0.765625q0 -0.421875 0 -0.921875l0 -6.859375q0 -0.4375 0 -0.78125q0 -0.34375 -0.015625 -0.625q0 -0.21875 -0.203125 -0.296875l-1.046875 -0.328125l-0.015625 -0.359375q1.09375 0.03125 2.125 0.03125q0.6875 0 1.328125 -0.03125q0.65625 -0.03125 1.1875 -0.03125q2.0 0 3.015625 0.78125q1.015625 0.78125 1.015625 2.328125q0 1.8125 -1.171875 2.828125q-1.171875 1.0 -3.296875 1.0q-0.59375 0 -1.25 -0.078125l0 2.421875zm9.639526 -8.4375q0 0.453125 -0.28125 0.734375q-0.265625 0.28125 -0.703125 0.28125q-0.4375 0 -0.703125 -0.265625q-0.265625 -0.265625 -0.265625 -0.6875q0 -0.46875 0.28125 -0.734375q0.28125 -0.265625 0.734375 -0.265625q0.421875 0 0.671875 0.25q0.265625 0.234375 0.265625 0.6875zm-2.859375 3.578125q1.484375 -0.265625 2.75 -0.578125l0.078125 0.046875q-0.0625 1.109375 -0.0625 2.421875l0 3.25q0 1.015625 0.03125 1.40625q0.015625 0.234375 0.203125 0.296875l0.984375 0.28125l0.015625 0.359375q-1.171875 -0.03125 -2.0 -0.03125q-0.828125 0 -1.96875 0.03125l-0.03125 -0.359375l0.984375 -0.28125q0.1875 -0.0625 0.203125 -0.265625q0.015625 -0.328125 0.015625 -1.109375l0 -2.828125q0 -1.109375 -0.03125 -2.046875l-1.125 -0.296875l-0.046875 -0.296875zm11.87616 6.859375q-0.53125 0.34375 -1.3125 0.59375q-0.765625 0.234375 -1.53125 0.234375q-1.828125 0 -2.890625 -1.0625q-1.0625 -1.078125 -1.0625 -2.859375q0 -1.9375 1.203125 -3.140625q1.21875 -1.203125 3.125 -1.203125q1.25 0 2.421875 0.5q-0.28125 1.140625 -0.5 2.3125l-0.328125 0.0625l-0.6875 -2.03125q-0.390625 -0.140625 -0.875 -0.140625q-1.265625 0 -1.984375 0.890625q-0.703125 0.875 -0.703125 2.3125q0 1.703125 0.796875 2.515625q0.8125 0.8125 2.546875 0.8125q0.8125 0 1.71875 -0.15625l0.0625 0.359375zm9.88623 0.625q-1.125 -0.03125 -1.671875 -0.03125q-0.375 0 -0.96875 0.015625q-0.3125 -0.515625 -0.75 -1.109375q-1.171875 -1.625 -2.515625 -3.1875l3.0625 -2.96875l-0.9375 -0.25l-0.03125 -0.34375q1.078125 0.03125 1.59375 0.03125q0.46875 0 1.78125 -0.03125l0.03125 0.34375q-0.859375 0.21875 -1.234375 0.390625q-0.375 0.15625 -0.859375 0.625l-1.8125 1.671875l2.71875 3.40625q0.453125 0.5625 0.703125 0.75q0.265625 0.1875 0.875 0.328125l0.015625 0.359375zm-8.875 -11.90625l-0.03125 -0.28125q1.484375 -0.28125 2.75 -0.59375l0.078125 0.0625q-0.046875 1.234375 -0.046875 3.84375l0 5.53125q0 1.25 0.015625 2.453125q0.015625 0.234375 0.21875 0.296875l0.8125 0.234375l0.03125 0.359375q-1.015625 -0.03125 -1.859375 -0.03125q-0.828125 0 -1.953125 0.03125l-0.03125 -0.359375l1.0 -0.296875q0.15625 -0.046875 0.1875 -0.25q0.015625 -0.953125 0.015625 -2.125l0 -3.484375q0 -4.390625 -0.046875 -5.046875l-1.140625 -0.34375zm16.757019 9.28125q0 1.0 0.015625 1.640625q0 0.203125 0.21875 0.265625l1.15625 0.34375l0.015625 0.375q-1.21875 -0.03125 -2.21875 -0.03125q-1.015625 0 -2.109375 0.03125l-0.03125 -0.375l1.046875 -0.3125q0.21875 -0.0625 0.21875 -0.25q0.015625 -0.6875 0.015625 -1.6875l0 -6.859375q0 -0.4375 0 -0.78125q0 -0.34375 -0.015625 -0.625q0 -0.21875 -0.203125 -0.296875l-1.046875 -0.328125l-0.015625 -0.359375q1.09375 0.03125 2.09375 0.03125l2.0625 0q1.890625 0 4.0 -0.03125l0.046875 0.0625l-0.484375 2.625l-0.34375 0.046875l-0.515625 -1.953125l-3.90625 0l0 4.828125l0.796875 0q0.890625 0 1.96875 -0.015625q0.234375 0 0.296875 -0.21875l0.34375 -1.140625l0.40625 -0.015625q-0.03125 1.1875 -0.03125 1.75q0 0.546875 0.03125 1.734375l-0.40625 0.03125l-0.359375 -1.15625q-0.0625 -0.21875 -0.25 -0.234375q-1.109375 -0.015625 -2.0 -0.015625l-0.796875 0l0 2.921875zm12.040161 1.84375q-1.3125 0.984375 -2.640625 0.984375q-1.328125 0 -2.0 -0.671875q-0.65625 -0.671875 -0.65625 -1.90625l0 -1.796875q0 -1.8125 -0.03125 -2.71875l-1.125 -0.296875l-0.046875 -0.296875q1.484375 -0.265625 2.75 -0.578125l0.0625 0.046875q-0.046875 1.0 -0.046875 2.546875l0 2.703125q0 1.015625 0.484375 1.484375q0.484375 0.453125 1.359375 0.453125q0.890625 0 1.8125 -0.46875l0 -3.59375q0 -1.1875 -0.046875 -2.0l-1.109375 -0.296875l-0.046875 -0.296875q1.46875 -0.265625 2.734375 -0.578125l0.078125 0.046875q-0.046875 1.015625 -0.046875 2.609375q0 3.0625 0.015625 3.734375q0 0.359375 0.046875 0.578125q0.046875 0.203125 0.15625 0.3125q0.125 0.109375 0.359375 0.15625q0.234375 0.046875 0.625 0.0625l0.03125 0.328125q-0.390625 0.15625 -0.890625 0.296875q-0.5 0.140625 -0.6875 0.140625q-0.859375 0 -1.140625 -0.984375zm3.6155396 -6.703125q1.421875 -0.265625 2.6875 -0.578125l0.078125 0.046875l0 1.0q1.578125 -1.046875 3.078125 -1.046875l0.046875 0.046875q-0.25 1.265625 -0.484375 2.609375l-0.34375 0.0625q-0.234375 -0.71875 -0.453125 -1.15625q-0.21875 -0.4375 -0.6875 -0.4375q-0.46875 0 -1.15625 0.421875l0 3.671875q0 1.3125 0.03125 1.875q0 0.234375 0.203125 0.296875l1.125 0.3125l0.03125 0.359375q-1.328125 -0.03125 -2.15625 -0.03125q-0.828125 0 -1.953125 0.03125l-0.046875 -0.359375l0.984375 -0.28125q0.203125 -0.0625 0.21875 -0.265625q0 -0.359375 0 -1.03125l0 -2.890625q0 -1.375 -0.03125 -2.0625l-1.125 -0.296875l-0.046875 -0.296875zm6.6418457 0q1.421875 -0.265625 2.6875 -0.578125l0.078125 0.046875l0 0.984375q1.484375 -1.03125 2.75 -1.03125q1.203125 0 1.875 0.671875q0.6875 0.671875 0.6875 1.90625l0 2.984375q0 1.0625 0.015625 1.5625q0.015625 0.234375 0.21875 0.296875l0.9375 0.28125l0.015625 0.359375q-1.109375 -0.03125 -1.9375 -0.03125q-0.828125 0 -1.84375 0.03125l-0.03125 -0.359375l0.84375 -0.234375q0.1875 -0.078125 0.203125 -0.265625q0.015625 -0.125 0.015625 -0.53125l0 -3.6875q0 -1.046875 -0.5 -1.5q-0.5 -0.453125 -1.46875 -0.453125q-0.859375 0 -1.78125 0.5l0 3.6875q0 1.0625 0.03125 1.9375q0 0.234375 0.1875 0.296875l0.875 0.25l0.015625 0.359375q-1.046875 -0.03125 -1.875 -0.03125q-0.828125 0 -1.953125 0.03125l-0.046875 -0.359375l1.0 -0.28125q0.1875 -0.078125 0.203125 -0.265625q0 -0.53125 0 -1.03125l0 -2.890625q0 -1.109375 -0.03125 -2.0625l-1.125 -0.296875l-0.046875 -0.296875zm12.944885 -3.578125q0 0.453125 -0.28125 0.734375q-0.265625 0.28125 -0.703125 0.28125q-0.4375 0 -0.703125 -0.265625q-0.265625 -0.265625 -0.265625 -0.6875q0 -0.46875 0.28125 -0.734375q0.28125 -0.265625 0.734375 -0.265625q0.421875 0 0.671875 0.25q0.265625 0.234375 0.265625 0.6875zm-2.859375 3.578125q1.484375 -0.265625 2.75 -0.578125l0.078125 0.046875q-0.0625 1.109375 -0.0625 2.421875l0 3.25q0 1.015625 0.03125 1.40625q0.015625 0.234375 0.203125 0.296875l0.984375 0.28125l0.015625 0.359375q-1.171875 -0.03125 -2.0 -0.03125q-0.828125 0 -1.96875 0.03125l-0.03125 -0.359375l0.984375 -0.28125q0.1875 -0.0625 0.203125 -0.265625q0.015625 -0.328125 0.015625 -1.109375l0 -2.828125q0 -1.109375 -0.03125 -2.046875l-1.125 -0.296875l-0.046875 -0.296875zm7.4542847 0.53125q-0.046875 2.859375 -0.046875 4.609375q0 0.875 0.25 1.21875q0.265625 0.328125 1.0 0.328125q0.59375 0 1.53125 -0.140625l0.046875 0.375q-1.46875 0.734375 -2.609375 0.734375q-0.921875 0 -1.375 -0.484375q-0.453125 -0.5 -0.453125 -1.5q0 -1.640625 0.0625 -5.1875l-1.171875 -0.296875l-0.046875 -0.34375l1.296875 -0.109375l0.59375 -2.046875q0.46875 -0.125 0.859375 -0.25l0.078125 0.0625q-0.015625 1.03125 -0.015625 1.921875l0 0.3125l2.546875 0l0 0.796875l-2.546875 0zm9.820435 6.171875q-1.3125 0.984375 -2.640625 0.984375q-1.328125 0 -2.0 -0.671875q-0.65625 -0.671875 -0.65625 -1.90625l0 -1.796875q0 -1.8125 -0.03125 -2.71875l-1.125 -0.296875l-0.046875 -0.296875q1.484375 -0.265625 2.75 -0.578125l0.0625 0.046875q-0.046875 1.0 -0.046875 2.546875l0 2.703125q0 1.015625 0.484375 1.484375q0.484375 0.453125 1.359375 0.453125q0.890625 0 1.8125 -0.46875l0 -3.59375q0 -1.1875 -0.046875 -2.0l-1.109375 -0.296875l-0.046875 -0.296875q1.46875 -0.265625 2.734375 -0.578125l0.078125 0.046875q-0.046875 1.015625 -0.046875 2.609375q0 3.0625 0.015625 3.734375q0 0.359375 0.046875 0.578125q0.046875 0.203125 0.15625 0.3125q0.125 0.109375 0.359375 0.15625q0.234375 0.046875 0.625 0.0625l0.03125 0.328125q-0.390625 0.15625 -0.890625 0.296875q-0.5 0.140625 -0.6875 0.140625q-0.859375 0 -1.140625 -0.984375zm3.6155396 -6.703125q1.421875 -0.265625 2.6875 -0.578125l0.078125 0.046875l0 1.0q1.578125 -1.046875 3.078125 -1.046875l0.046875 0.046875q-0.25 1.265625 -0.484375 2.609375l-0.34375 0.0625q-0.234375 -0.71875 -0.453125 -1.15625q-0.21875 -0.4375 -0.6875 -0.4375q-0.46875 0 -1.15625 0.421875l0 3.671875q0 1.3125 0.03125 1.875q0 0.234375 0.203125 0.296875l1.125 0.3125l0.03125 0.359375q-1.328125 -0.03125 -2.15625 -0.03125q-0.828125 0 -1.953125 0.03125l-0.046875 -0.359375l0.984375 -0.28125q0.203125 -0.0625 0.21875 -0.265625q0 -0.359375 0 -1.03125l0 -2.890625q0 -1.375 -0.03125 -2.0625l-1.125 -0.296875l-0.046875 -0.296875zm13.528564 6.859375q-0.71875 0.4375 -1.484375 0.625q-0.75 0.203125 -1.40625 0.203125q-1.859375 0 -2.96875 -1.0625q-1.109375 -1.0625 -1.109375 -2.953125q0 -1.875 1.0625 -3.0625q1.0625 -1.1875 2.84375 -1.1875q1.484375 0 2.3125 0.890625q0.828125 0.890625 0.828125 2.46875q0 0.234375 -0.015625 0.46875l-5.375 0q0 1.828125 0.859375 2.609375q0.859375 0.78125 2.671875 0.78125q0.8125 0 1.734375 -0.15625l0.046875 0.375zm-1.59375 -4.3125l0 -0.25q0 -1.203125 -0.390625 -1.71875q-0.390625 -0.515625 -1.140625 -0.515625q-1.015625 0 -1.546875 0.734375q-0.53125 0.71875 -0.59375 1.75l3.671875 0z" fill-rule="nonzero"/><path fill="#ffffff" d="m743.96326 259.47507l130.17322 0l0 93.22833l-130.17322 0z" fill-rule="evenodd"/><path stroke="#595959" stroke-width="1.0" stroke-linejoin="round" stroke-linecap="butt" d="m743.96326 259.47507l130.17322 0l0 93.22833l-130.17322 0z" fill-rule="evenodd"/><path fill="#000000" fill-opacity="0.0" d="m743.96326 285.88452l155.08661 0l0 40.409454l-155.08661 0z" fill-rule="evenodd"/><path fill="#000000" d="m756.7445 305.80576q0.578125 0.09375 1.15625 0.09375q1.359375 0 2.0625 -0.6875q0.703125 -0.703125 0.703125 -2.140625q0 -1.375 -0.671875 -2.046875q-0.671875 -0.6875 -2.109375 -0.6875q-0.578125 0 -1.140625 0.0625l0 5.40625zm0 3.125q0 0.5 0 0.90625q0 0.40625 0.015625 0.734375q0 0.1875 0.21875 0.265625l1.15625 0.34375l0.015625 0.375q-1.21875 -0.03125 -2.21875 -0.03125q-1.03125 0 -2.109375 0.03125l-0.03125 -0.375l1.046875 -0.3125q0.21875 -0.0625 0.21875 -0.25q0.015625 -0.34375 0.015625 -0.765625q0 -0.421875 0 -0.921875l0 -6.859375q0 -0.4375 0 -0.78125q0 -0.34375 -0.015625 -0.625q0 -0.21875 -0.203125 -0.296875l-1.046875 -0.328125l-0.015625 -0.359375q1.09375 0.03125 2.125 0.03125q0.6875 0 1.328125 -0.03125q0.65625 -0.03125 1.1875 -0.03125q2.0 0 3.015625 0.78125q1.015625 0.78125 1.015625 2.328125q0 1.8125 -1.171875 2.828125q-1.171875 1.0 -3.296875 1.0q-0.59375 0 -1.25 -0.078125l0 2.421875zm9.639526 -8.4375q0 0.453125 -0.28125 0.734375q-0.265625 0.28125 -0.703125 0.28125q-0.4375 0 -0.703125 -0.265625q-0.265625 -0.265625 -0.265625 -0.6875q0 -0.46875 0.28125 -0.734375q0.28125 -0.265625 0.734375 -0.265625q0.421875 0 0.671875 0.25q0.265625 0.234375 0.265625 0.6875zm-2.859375 3.578125q1.484375 -0.265625 2.75 -0.578125l0.078125 0.046875q-0.0625 1.109375 -0.0625 2.421875l0 3.25q0 1.015625 0.03125 1.40625q0.015625 0.234375 0.203125 0.296875l0.984375 0.28125l0.015625 0.359375q-1.171875 -0.03125 -2.0 -0.03125q-0.828125 0 -1.96875 0.03125l-0.03125 -0.359375l0.984375 -0.28125q0.1875 -0.0625 0.203125 -0.265625q0.015625 -0.328125 0.015625 -1.109375l0 -2.828125q0 -1.109375 -0.03125 -2.046875l-1.125 -0.296875l-0.046875 -0.296875zm11.87616 6.859375q-0.53125 0.34375 -1.3125 0.59375q-0.765625 0.234375 -1.53125 0.234375q-1.828125 0 -2.890625 -1.0625q-1.0625 -1.078125 -1.0625 -2.859375q0 -1.9375 1.203125 -3.140625q1.21875 -1.203125 3.125 -1.203125q1.25 0 2.421875 0.5q-0.28125 1.140625 -0.5 2.3125l-0.328125 0.0625l-0.6875 -2.03125q-0.390625 -0.140625 -0.875 -0.140625q-1.265625 0 -1.984375 0.890625q-0.703125 0.875 -0.703125 2.3125q0 1.703125 0.796875 2.515625q0.8125 0.8125 2.546875 0.8125q0.8125 0 1.71875 -0.15625l0.0625 0.359375zm9.8862915 0.625q-1.125 -0.03125 -1.671875 -0.03125q-0.375 0 -0.96875 0.015625q-0.3125 -0.515625 -0.75 -1.109375q-1.171875 -1.625 -2.515625 -3.1875l3.0625 -2.96875l-0.9375 -0.25l-0.03125 -0.34375q1.078125 0.03125 1.59375 0.03125q0.46875 0 1.78125 -0.03125l0.03125 0.34375q-0.859375 0.21875 -1.234375 0.390625q-0.375 0.15625 -0.859375 0.625l-1.8125 1.671875l2.71875 3.40625q0.453125 0.5625 0.703125 0.75q0.265625 0.1875 0.875 0.328125l0.015625 0.359375zm-8.875 -11.90625l-0.03125 -0.28125q1.484375 -0.28125 2.75 -0.59375l0.078125 0.0625q-0.046875 1.234375 -0.046875 3.84375l0 5.53125q0 1.25 0.015625 2.453125q0.015625 0.234375 0.21875 0.296875l0.8125 0.234375l0.03125 0.359375q-1.015625 -0.03125 -1.859375 -0.03125q-0.828125 0 -1.953125 0.03125l-0.03125 -0.359375l1.0 -0.296875q0.15625 -0.046875 0.1875 -0.25q0.015625 -0.953125 0.015625 -2.125l0 -3.484375q0 -4.390625 -0.046875 -5.046875l-1.140625 -0.34375zm16.319458 0.84375q0 0.453125 -0.28125 0.734375q-0.265625 0.28125 -0.703125 0.28125q-0.4375 0 -0.703125 -0.265625q-0.265625 -0.265625 -0.265625 -0.6875q0 -0.46875 0.28125 -0.734375q0.28125 -0.265625 0.734375 -0.265625q0.421875 0 0.671875 0.25q0.265625 0.234375 0.265625 0.6875zm-2.859375 3.578125q1.484375 -0.265625 2.75 -0.578125l0.078125 0.046875q-0.0625 1.109375 -0.0625 2.421875l0 3.25q0 1.015625 0.03125 1.40625q0.015625 0.234375 0.203125 0.296875l0.984375 0.28125l0.015625 0.359375q-1.171875 -0.03125 -2.0 -0.03125q-0.828125 0 -1.96875 0.03125l-0.03125 -0.359375l0.984375 -0.28125q0.1875 -0.0625 0.203125 -0.265625q0.015625 -0.328125 0.015625 -1.109375l0 -2.828125q0 -1.109375 -0.03125 -2.046875l-1.125 -0.296875l-0.046875 -0.296875zm7.4542847 0.53125q-0.046875 2.859375 -0.046875 4.609375q0 0.875 0.25 1.21875q0.265625 0.328125 1.0 0.328125q0.59375 0 1.53125 -0.140625l0.046875 0.375q-1.46875 0.734375 -2.609375 0.734375q-0.921875 0 -1.375 -0.484375q-0.453125 -0.5 -0.453125 -1.5q0 -1.640625 0.0625 -5.1875l-1.171875 -0.296875l-0.046875 -0.34375l1.296875 -0.109375l0.59375 -2.046875q0.46875 -0.125 0.859375 -0.25l0.078125 0.0625q-0.015625 1.03125 -0.015625 1.921875l0 0.3125l2.546875 0l0 0.796875l-2.546875 0zm10.457153 6.328125q-0.71875 0.4375 -1.484375 0.625q-0.75 0.203125 -1.40625 0.203125q-1.859375 0 -2.96875 -1.0625q-1.109375 -1.0625 -1.109375 -2.953125q0 -1.875 1.0625 -3.0625q1.0625 -1.1875 2.84375 -1.1875q1.484375 0 2.3125 0.890625q0.828125 0.890625 0.828125 2.46875q0 0.234375 -0.015625 0.46875l-5.375 0q0 1.828125 0.859375 2.609375q0.859375 0.78125 2.671875 0.78125q0.8125 0 1.734375 -0.15625l0.046875 0.375zm-1.59375 -4.3125l0 -0.25q0 -1.203125 -0.390625 -1.71875q-0.390625 -0.515625 -1.140625 -0.515625q-1.015625 0 -1.546875 0.734375q-0.53125 0.71875 -0.59375 1.75l3.671875 0zm10.534607 -1.484375q0.109375 0.40625 0.109375 0.921875l0 3.015625q0 0.984375 0.015625 1.59375q0.015625 0.21875 0.21875 0.296875l0.859375 0.234375l0.015625 0.359375q-1.03125 -0.03125 -1.859375 -0.03125q-0.828125 0 -1.84375 0.03125l-0.03125 -0.359375l0.796875 -0.234375q0.25 -0.078125 0.25 -0.265625q0.015625 -0.125 0.015625 -0.53125l0 -3.6875q0 -1.046875 -0.484375 -1.5q-0.46875 -0.453125 -1.390625 -0.453125q-0.828125 0 -1.6875 0.5l0 3.6875q0 1.0625 0.03125 1.9375q0 0.25 0.171875 0.296875l0.890625 0.25l0.015625 0.359375q-1.046875 -0.03125 -1.875 -0.03125q-0.828125 0 -1.953125 0.03125l-0.046875 -0.359375l0.984375 -0.28125q0.203125 -0.0625 0.21875 -0.265625q0 -0.4375 0 -1.03125l0 -2.890625q0 -1.109375 -0.03125 -2.0625l-1.125 -0.296875l-0.046875 -0.296875q1.40625 -0.265625 2.6875 -0.578125l0.078125 0.046875l0 0.984375q1.390625 -1.03125 2.625 -1.03125q1.53125 0 2.203125 1.171875q1.34375 -1.171875 2.90625 -1.171875q1.171875 0 1.828125 0.671875q0.671875 0.65625 0.671875 1.890625l0 2.984375q0 1.078125 0.015625 1.578125q0.015625 0.234375 0.234375 0.296875l0.9375 0.28125l0.015625 0.359375q-1.109375 -0.03125 -1.9375 -0.03125q-0.84375 0 -1.859375 0.03125l-0.03125 -0.359375l0.84375 -0.234375q0.1875 -0.078125 0.21875 -0.265625q0.015625 -0.125 0.015625 -0.53125l0 -3.6875q0 -1.046875 -0.484375 -1.5q-0.484375 -0.453125 -1.421875 -0.453125q-0.953125 0 -1.765625 0.609375zm11.572327 -0.796875q-0.484375 -0.125 -1.0625 -0.125q-0.796875 0 -1.28125 0.3125q-0.484375 0.296875 -0.484375 0.828125q0 0.515625 0.3125 0.8125q0.3125 0.296875 1.1875 0.59375l0.6875 0.234375q1.171875 0.390625 1.71875 0.90625q0.546875 0.515625 0.546875 1.34375q0 1.171875 -0.921875 1.84375q-0.90625 0.671875 -2.3125 0.671875q-1.28125 0 -2.625 -0.515625q0.28125 -1.109375 0.46875 -2.15625l0.328125 -0.046875l0.609375 1.8125q0.484375 0.1875 1.21875 0.1875q0.796875 0 1.265625 -0.3125q0.46875 -0.328125 0.46875 -0.90625q0 -0.546875 -0.328125 -0.859375q-0.3125 -0.3125 -1.0 -0.546875l-0.890625 -0.296875q-1.140625 -0.375 -1.578125 -0.90625q-0.421875 -0.546875 -0.421875 -1.34375q0 -1.109375 0.828125 -1.734375q0.84375 -0.640625 2.234375 -0.640625q1.28125 0 2.328125 0.359375q-0.234375 0.96875 -0.4375 2.046875l-0.3125 0.0625l-0.546875 -1.625z" fill-rule="nonzero"/><path fill="#ffffff" d="m518.3018 259.47507l130.17322 0l0 93.22833l-130.17322 0z" fill-rule="evenodd"/><path stroke="#595959" stroke-width="1.0" stroke-linejoin="round" stroke-linecap="butt" d="m518.3018 259.47507l130.17322 0l0 93.22833l-130.17322 0z" fill-rule="evenodd"/><path fill="#000000" fill-opacity="0.0" d="m518.3018 285.88452l155.08661 0l0 40.409454l-155.08661 0z" fill-rule="evenodd"/><path fill="#000000" d="m533.6768 299.50888l3.765625 10.34375q0.203125 0.578125 0.375 0.796875q0.171875 0.203125 0.5 0.296875l0.796875 0.234375l0.015625 0.375q-1.109375 -0.03125 -2.0625 -0.03125q-0.953125 0 -2.265625 0.03125l-0.03125 -0.375l0.796875 -0.234375q0.171875 -0.0625 0.234375 -0.125q0.078125 -0.078125 0.078125 -0.234375q0 -0.15625 -0.09375 -0.4375q-0.078125 -0.28125 -0.25 -0.734375l-0.78125 -2.265625l-4.078125 0l-0.890625 2.265625q-0.1875 0.46875 -0.296875 0.75q-0.09375 0.28125 -0.09375 0.4375q0 0.140625 0.078125 0.21875q0.09375 0.0625 0.25 0.125l0.78125 0.21875l0.015625 0.390625q-1.203125 -0.03125 -1.953125 -0.03125q-0.765625 0 -1.703125 0.03125l-0.046875 -0.375l0.859375 -0.25q0.3125 -0.109375 0.46875 -0.3125q0.15625 -0.21875 0.34375 -0.671875l4.328125 -10.3125l0.859375 -0.125zm-2.6875 6.875l3.484375 0l-1.65625 -4.671875l-1.828125 4.671875zm11.778442 2.546875q0 0.5 0 0.90625q0 0.40625 0.015625 0.734375q0 0.265625 0.21875 0.328125l0.9375 0.28125l0.015625 0.375q-1.0 -0.03125 -2.0 -0.03125q-1.03125 0 -2.109375 0.03125l-0.03125 -0.375l1.046875 -0.3125q0.203125 -0.046875 0.21875 -0.25q0.015625 -0.34375 0.015625 -0.765625q0 -0.421875 0 -0.921875l0 -6.859375q0 -0.4375 0 -0.78125q0 -0.34375 -0.015625 -0.625q0 -0.21875 -0.203125 -0.296875l-1.046875 -0.328125l-0.015625 -0.359375q1.09375 0.03125 2.125 0.03125q0.203125 0 0.515625 -0.015625q0.3125 -0.015625 0.765625 -0.03125q0.453125 -0.015625 0.75 -0.015625q0.3125 -0.015625 0.484375 -0.015625q1.9375 0 2.890625 0.734375q0.96875 0.71875 0.96875 2.125q0 1.25 -0.65625 2.046875q-0.65625 0.78125 -2.015625 1.203125q0.53125 0.8125 0.984375 1.578125q0.453125 0.75 0.828125 1.375q0.390625 0.625 0.703125 1.109375q0.328125 0.484375 0.609375 0.765625q0.140625 0.140625 0.28125 0.25q0.15625 0.109375 0.3125 0.171875q0.15625 0.0625 0.328125 0.125q0.171875 0.046875 0.375 0.09375l0.03125 0.375q-0.609375 0.078125 -1.03125 0.078125q-0.34375 0 -0.609375 -0.03125q-0.25 -0.015625 -0.453125 -0.0625q-0.203125 -0.046875 -0.375 -0.125q-0.15625 -0.078125 -0.328125 -0.203125q-0.34375 -0.265625 -0.6875 -0.765625q-0.328125 -0.5 -0.6875 -1.125q-0.359375 -0.625 -0.75 -1.328125q-0.390625 -0.703125 -0.8125 -1.375q-0.125 -0.203125 -0.21875 -0.328125q-0.09375 -0.125 -0.203125 -0.1875q-0.09375 -0.0625 -0.234375 -0.09375q-0.140625 -0.03125 -0.359375 -0.03125l-0.578125 -0.015625l0 2.9375zm0 -3.578125q0.515625 0.03125 0.953125 0.03125q1.453125 0 2.140625 -0.625q0.6875 -0.625 0.6875 -1.953125q0 -1.28125 -0.65625 -1.875q-0.65625 -0.59375 -2.046875 -0.59375q-0.234375 0 -0.5 0.015625q-0.265625 0.015625 -0.578125 0.046875l0 4.953125zm18.53772 5.578125q-0.53125 0.34375 -1.3125 0.59375q-0.765625 0.234375 -1.53125 0.234375q-1.828125 0 -2.890625 -1.0625q-1.0625 -1.078125 -1.0625 -2.859375q0 -1.9375 1.203125 -3.140625q1.21875 -1.203125 3.125 -1.203125q1.25 0 2.421875 0.5q-0.28125 1.140625 -0.5 2.3125l-0.328125 0.0625l-0.6875 -2.03125q-0.390625 -0.140625 -0.875 -0.140625q-1.265625 0 -1.984375 0.890625q-0.703125 0.875 -0.703125 2.3125q0 1.703125 0.796875 2.515625q0.8125 0.8125 2.546875 0.8125q0.8125 0 1.71875 -0.15625l0.0625 0.359375zm5.7612915 -3.234375q-1.84375 0 -2.53125 0.359375q-0.671875 0.359375 -0.671875 1.234375q0 0.796875 0.4375 1.140625q0.453125 0.328125 1.234375 0.328125q0.859375 0 1.515625 -0.296875l0.015625 -2.765625zm-4.109375 -3.484375q1.65625 -0.71875 2.921875 -0.71875q1.296875 0 2.015625 0.671875q0.734375 0.671875 0.71875 1.953125l-0.046875 3.515625q0 0.4375 0.03125 0.703125q0.03125 0.25 0.140625 0.390625q0.125 0.140625 0.375 0.203125q0.25 0.046875 0.65625 0.0625l0.046875 0.328125q-0.359375 0.140625 -0.890625 0.28125q-0.515625 0.15625 -0.703125 0.15625q-0.828125 0 -1.125 -0.859375q-1.1875 0.859375 -2.234375 0.859375q-1.171875 0 -1.890625 -0.578125q-0.71875 -0.578125 -0.71875 -1.640625q0 -1.296875 1.15625 -1.90625q1.171875 -0.625 3.65625 -0.625l0.015625 -0.65625q0 -0.953125 -0.5 -1.40625q-0.484375 -0.46875 -1.5 -0.46875q-0.765625 0 -1.921875 0.296875l-0.203125 -0.5625zm7.6765137 -4.5625l-0.03125 -0.28125q1.484375 -0.28125 2.75 -0.59375l0.078125 0.0625q-0.046875 1.390625 -0.046875 3.84375l0 5.5q0 1.515625 0.015625 2.4375q0.015625 0.25 0.234375 0.3125l0.921875 0.265625l0.03125 0.359375q-1.140625 -0.03125 -1.984375 -0.03125q-0.828125 0 -1.953125 0.03125l-0.03125 -0.359375l0.953125 -0.265625q0.203125 -0.078125 0.234375 -0.28125q0.015625 -0.953125 0.015625 -2.125l0 -3.484375q0 -3.140625 -0.046875 -5.046875l-1.140625 -0.34375zm7.7401123 0.84375q0 0.453125 -0.28125 0.734375q-0.265625 0.28125 -0.703125 0.28125q-0.4375 0 -0.703125 -0.265625q-0.265625 -0.265625 -0.265625 -0.6875q0 -0.46875 0.28125 -0.734375q0.28125 -0.265625 0.734375 -0.265625q0.421875 0 0.671875 0.25q0.265625 0.234375 0.265625 0.6875zm-2.859375 3.578125q1.484375 -0.265625 2.75 -0.578125l0.078125 0.046875q-0.0625 1.109375 -0.0625 2.421875l0 3.25q0 1.015625 0.03125 1.40625q0.015625 0.234375 0.203125 0.296875l0.984375 0.28125l0.015625 0.359375q-1.171875 -0.03125 -2.0 -0.03125q-0.828125 0 -1.96875 0.03125l-0.03125 -0.359375l0.984375 -0.28125q0.1875 -0.0625 0.203125 -0.265625q0.015625 -0.328125 0.015625 -1.109375l0 -2.828125q0 -1.109375 -0.03125 -2.046875l-1.125 -0.296875l-0.046875 -0.296875zm7.4698486 6.734375q0.6875 0.21875 1.390625 0.21875q1.421875 0 2.125 -0.859375q0.71875 -0.875 0.71875 -2.5q0 -1.5 -0.65625 -2.328125q-0.65625 -0.828125 -1.953125 -0.828125q-0.828125 0 -1.625 0.375l0 5.921875zm0.046875 -11.96875q-0.046875 1.28125 -0.046875 3.828125l0 1.703125q1.359375 -0.875 2.5 -0.875q1.578125 0 2.5 1.0625q0.9375 1.0625 0.9375 2.78125q0 2.09375 -1.203125 3.265625q-1.1875 1.15625 -3.28125 1.15625q-1.40625 0 -3.03125 -0.484375q0.015625 -1.078125 0.015625 -2.765625l0 -5.015625q0 -1.875 -0.03125 -3.5l-1.15625 -0.34375l-0.03125 -0.28125q1.390625 -0.25 2.75 -0.59375l0.078125 0.0625zm7.0446167 5.234375q1.421875 -0.265625 2.6875 -0.578125l0.078125 0.046875l0 1.0q1.578125 -1.046875 3.078125 -1.046875l0.046875 0.046875q-0.25 1.265625 -0.484375 2.609375l-0.34375 0.0625q-0.234375 -0.71875 -0.453125 -1.15625q-0.21875 -0.4375 -0.6875 -0.4375q-0.46875 0 -1.15625 0.421875l0 3.671875q0 1.3125 0.03125 1.875q0 0.234375 0.203125 0.296875l1.125 0.3125l0.03125 0.359375q-1.328125 -0.03125 -2.15625 -0.03125q-0.828125 0 -1.953125 0.03125l-0.046875 -0.359375l0.984375 -0.28125q0.203125 -0.0625 0.21875 -0.265625q0 -0.359375 0 -1.03125l0 -2.890625q0 -1.375 -0.03125 -2.0625l-1.125 -0.296875l-0.046875 -0.296875zm11.080078 3.625q-1.84375 0 -2.53125 0.359375q-0.671875 0.359375 -0.671875 1.234375q0 0.796875 0.4375 1.140625q0.453125 0.328125 1.234375 0.328125q0.859375 0 1.515625 -0.296875l0.015625 -2.765625zm-4.109375 -3.484375q1.65625 -0.71875 2.921875 -0.71875q1.296875 0 2.015625 0.671875q0.734375 0.671875 0.71875 1.953125l-0.046875 3.515625q0 0.4375 0.03125 0.703125q0.03125 0.25 0.140625 0.390625q0.125 0.140625 0.375 0.203125q0.25 0.046875 0.65625 0.0625l0.046875 0.328125q-0.359375 0.140625 -0.890625 0.28125q-0.515625 0.15625 -0.703125 0.15625q-0.828125 0 -1.125 -0.859375q-1.1875 0.859375 -2.234375 0.859375q-1.171875 0 -1.890625 -0.578125q-0.71875 -0.578125 -0.71875 -1.640625q0 -1.296875 1.15625 -1.90625q1.171875 -0.625 3.65625 -0.625l0.015625 -0.65625q0 -0.953125 -0.5 -1.40625q-0.484375 -0.46875 -1.5 -0.46875q-0.765625 0 -1.921875 0.296875l-0.203125 -0.5625zm10.239014 0.390625q-0.046875 2.859375 -0.046875 4.609375q0 0.875 0.25 1.21875q0.265625 0.328125 1.0 0.328125q0.59375 0 1.53125 -0.140625l0.046875 0.375q-1.46875 0.734375 -2.609375 0.734375q-0.921875 0 -1.375 -0.484375q-0.453125 -0.5 -0.453125 -1.5q0 -1.640625 0.0625 -5.1875l-1.171875 -0.296875l-0.046875 -0.34375l1.296875 -0.109375l0.59375 -2.046875q0.46875 -0.125 0.859375 -0.25l0.078125 0.0625q-0.015625 1.03125 -0.015625 1.921875l0 0.3125l2.546875 0l0 0.796875l-2.546875 0zm6.4298096 -4.109375q0 0.453125 -0.28125 0.734375q-0.265625 0.28125 -0.703125 0.28125q-0.4375 0 -0.703125 -0.265625q-0.265625 -0.265625 -0.265625 -0.6875q0 -0.46875 0.28125 -0.734375q0.28125 -0.265625 0.734375 -0.265625q0.421875 0 0.671875 0.25q0.265625 0.234375 0.265625 0.6875zm-2.859375 3.578125q1.484375 -0.265625 2.75 -0.578125l0.078125 0.046875q-0.0625 1.109375 -0.0625 2.421875l0 3.25q0 1.015625 0.03125 1.40625q0.015625 0.234375 0.203125 0.296875l0.984375 0.28125l0.015625 0.359375q-1.171875 -0.03125 -2.0 -0.03125q-0.828125 0 -1.96875 0.03125l-0.03125 -0.359375l0.984375 -0.28125q0.1875 -0.0625 0.203125 -0.265625q0.015625 -0.328125 0.015625 -1.109375l0 -2.828125q0 -1.109375 -0.03125 -2.046875l-1.125 -0.296875l-0.046875 -0.296875zm6.7980347 3.453125q0 1.59375 0.59375 2.59375q0.59375 0.984375 1.765625 0.984375q1.09375 0 1.65625 -0.875q0.578125 -0.875 0.578125 -2.59375q0 -1.625 -0.609375 -2.546875q-0.59375 -0.9375 -1.734375 -0.9375q-1.09375 0 -1.671875 0.84375q-0.578125 0.84375 -0.578125 2.53125zm6.3125 -0.0625q0 1.921875 -1.171875 3.109375q-1.15625 1.1875 -2.953125 1.1875q-1.75 0 -2.828125 -1.109375q-1.078125 -1.125 -1.078125 -2.9375q0 -1.859375 1.125 -3.03125q1.140625 -1.1875 3.0 -1.1875q1.765625 0 2.828125 1.09375q1.078125 1.078125 1.078125 2.875zm1.163208 -3.390625q1.421875 -0.265625 2.6875 -0.578125l0.078125 0.046875l0 0.984375q1.484375 -1.03125 2.75 -1.03125q1.203125 0 1.875 0.671875q0.6875 0.671875 0.6875 1.90625l0 2.984375q0 1.0625 0.015625 1.5625q0.015625 0.234375 0.21875 0.296875l0.9375 0.28125l0.015625 0.359375q-1.109375 -0.03125 -1.9375 -0.03125q-0.828125 0 -1.84375 0.03125l-0.03125 -0.359375l0.84375 -0.234375q0.1875 -0.078125 0.203125 -0.265625q0.015625 -0.125 0.015625 -0.53125l0 -3.6875q0 -1.046875 -0.5 -1.5q-0.5 -0.453125 -1.46875 -0.453125q-0.859375 0 -1.78125 0.5l0 3.6875q0 1.0625 0.03125 1.9375q0 0.234375 0.1875 0.296875l0.875 0.25l0.015625 0.359375q-1.046875 -0.03125 -1.875 -0.03125q-0.828125 0 -1.953125 0.03125l-0.046875 -0.359375l1.0 -0.28125q0.1875 -0.078125 0.203125 -0.265625q0 -0.53125 0 -1.03125l0 -2.890625q0 -1.109375 -0.03125 -2.0625l-1.125 -0.296875l-0.046875 -0.296875z" fill-rule="nonzero"/><path fill="#ffffff" d="m294.4357 253.95801l130.17322 0l0 93.22833l-130.17322 0z" fill-rule="evenodd"/><path stroke="#595959" stroke-width="1.0" stroke-linejoin="round" stroke-linecap="butt" d="m294.4357 253.95801l130.17322 0l0 93.22833l-130.17322 0z" fill-rule="evenodd"/><path fill="#000000" fill-opacity="0.0" d="m294.4357 280.36746l155.08661 0l0 40.409454l-155.08661 0z" fill-rule="evenodd"/><path fill="#000000" d="m307.21695 300.2887q0.578125 0.09375 1.15625 0.09375q1.359375 0 2.0625 -0.6875q0.703125 -0.703125 0.703125 -2.140625q0 -1.375 -0.671875 -2.046875q-0.671875 -0.6875 -2.109375 -0.6875q-0.578125 0 -1.140625 0.0625l0 5.40625zm0 3.125q0 0.5 0 0.90625q0 0.40625 0.015625 0.734375q0 0.1875 0.21875 0.265625l1.15625 0.34375l0.015625 0.375q-1.21875 -0.03125 -2.21875 -0.03125q-1.03125 0 -2.109375 0.03125l-0.03125 -0.375l1.046875 -0.3125q0.21875 -0.0625 0.21875 -0.25q0.015625 -0.34375 0.015625 -0.765625q0 -0.421875 0 -0.921875l0 -6.859375q0 -0.4375 0 -0.78125q0 -0.34375 -0.015625 -0.625q0 -0.21875 -0.203125 -0.296875l-1.046875 -0.328125l-0.015625 -0.359375q1.09375 0.03125 2.125 0.03125q0.6875 0 1.328125 -0.03125q0.65625 -0.03125 1.1875 -0.03125q2.0 0 3.015625 0.78125q1.015625 0.78125 1.015625 2.328125q0 1.8125 -1.171875 2.828125q-1.171875 1.0 -3.296875 1.0q-0.59375 0 -1.25 -0.078125l0 2.421875zm9.639557 -8.4375q0 0.453125 -0.28125 0.734375q-0.265625 0.28125 -0.703125 0.28125q-0.4375 0 -0.703125 -0.265625q-0.265625 -0.265625 -0.265625 -0.6875q0 -0.46875 0.28125 -0.734375q0.28125 -0.265625 0.734375 -0.265625q0.421875 0 0.671875 0.25q0.265625 0.234375 0.265625 0.6875zm-2.859375 3.578125q1.484375 -0.265625 2.75 -0.578125l0.078125 0.046875q-0.0625 1.109375 -0.0625 2.421875l0 3.25q0 1.015625 0.03125 1.40625q0.015625 0.234375 0.203125 0.296875l0.984375 0.28125l0.015625 0.359375q-1.171875 -0.03125 -2.0 -0.03125q-0.828125 0 -1.96875 0.03125l-0.03125 -0.359375l0.984375 -0.28125q0.1875 -0.0625 0.203125 -0.265625q0.015625 -0.328125 0.015625 -1.109375l0 -2.828125q0 -1.109375 -0.03125 -2.046875l-1.125 -0.296875l-0.046875 -0.296875zm11.876129 6.859375q-0.53125 0.34375 -1.3125 0.59375q-0.765625 0.234375 -1.53125 0.234375q-1.828125 0 -2.890625 -1.0625q-1.0625 -1.078125 -1.0625 -2.859375q0 -1.9375 1.203125 -3.140625q1.21875 -1.203125 3.125 -1.203125q1.25 0 2.421875 0.5q-0.28125 1.140625 -0.5 2.3125l-0.328125 0.0625l-0.6875 -2.03125q-0.390625 -0.140625 -0.875 -0.140625q-1.265625 0 -1.984375 0.890625q-0.703125 0.875 -0.703125 2.3125q0 1.703125 0.796875 2.515625q0.8125 0.8125 2.546875 0.8125q0.8125 0 1.71875 -0.15625l0.0625 0.359375zm9.886261 0.625q-1.125 -0.03125 -1.671875 -0.03125q-0.375 0 -0.96875 0.015625q-0.3125 -0.515625 -0.75 -1.109375q-1.171875 -1.625 -2.515625 -3.1875l3.0625 -2.96875l-0.9375 -0.25l-0.03125 -0.34375q1.078125 0.03125 1.59375 0.03125q0.46875 0 1.78125 -0.03125l0.03125 0.34375q-0.859375 0.21875 -1.234375 0.390625q-0.375 0.15625 -0.859375 0.625l-1.8125 1.671875l2.71875 3.40625q0.453125 0.5625 0.703125 0.75q0.265625 0.1875 0.875 0.328125l0.015625 0.359375zm-8.875 -11.90625l-0.03125 -0.28125q1.484375 -0.28125 2.75 -0.59375l0.078125 0.0625q-0.046875 1.234375 -0.046875 3.84375l0 5.53125q0 1.25 0.015625 2.453125q0.015625 0.234375 0.21875 0.296875l0.8125 0.234375l0.03125 0.359375q-1.015625 -0.03125 -1.859375 -0.03125q-0.828125 0 -1.953125 0.03125l-0.03125 -0.359375l1.0 -0.296875q0.15625 -0.046875 0.1875 -0.25q0.015625 -0.953125 0.015625 -2.125l0 -3.484375q0 -4.390625 -0.046875 -5.046875l-1.140625 -0.34375zm13.272614 4.828125l-0.046875 -0.34375q1.703125 -0.265625 3.40625 -0.5625l0.078125 0.0625q-0.109375 1.484375 -0.109375 3.0625l0 2.0625q0 1.109375 0.015625 1.796875q0.015625 0.25 0.25 0.3125l1.34375 0.34375l0.015625 0.34375q-1.5625 -0.03125 -2.390625 -0.03125q-0.828125 0 -2.390625 0.03125l-0.03125 -0.34375l1.375 -0.34375q0.234375 -0.0625 0.234375 -0.28125q0.015625 -0.671875 0.015625 -1.515625l0 -1.40625q0 -1.703125 -0.03125 -3.015625l-1.734375 -0.171875zm12.819336 -3.984375q0 0.453125 -0.28125 0.734375q-0.265625 0.28125 -0.703125 0.28125q-0.4375 0 -0.703125 -0.265625q-0.265625 -0.265625 -0.265625 -0.6875q0 -0.46875 0.28125 -0.734375q0.28125 -0.265625 0.734375 -0.265625q0.421875 0 0.671875 0.25q0.265625 0.234375 0.265625 0.6875zm-2.859375 3.578125q1.484375 -0.265625 2.75 -0.578125l0.078125 0.046875q-0.0625 1.109375 -0.0625 2.421875l0 3.25q0 1.015625 0.03125 1.40625q0.015625 0.234375 0.203125 0.296875l0.984375 0.28125l0.015625 0.359375q-1.171875 -0.03125 -2.0 -0.03125q-0.828125 0 -1.96875 0.03125l-0.03125 -0.359375l0.984375 -0.28125q0.1875 -0.0625 0.203125 -0.265625q0.015625 -0.328125 0.015625 -1.109375l0 -2.828125q0 -1.109375 -0.03125 -2.046875l-1.125 -0.296875l-0.046875 -0.296875zm7.454254 0.53125q-0.046875 2.859375 -0.046875 4.609375q0 0.875 0.25 1.21875q0.265625 0.328125 1.0 0.328125q0.59375 0 1.53125 -0.140625l0.046875 0.375q-1.46875 0.734375 -2.609375 0.734375q-0.921875 0 -1.375 -0.484375q-0.453125 -0.5 -0.453125 -1.5q0 -1.640625 0.0625 -5.1875l-1.171875 -0.296875l-0.046875 -0.34375l1.296875 -0.109375l0.59375 -2.046875q0.46875 -0.125 0.859375 -0.25l0.078125 0.0625q-0.015625 1.03125 -0.015625 1.921875l0 0.3125l2.546875 0l0 0.796875l-2.546875 0zm10.457153 6.328125q-0.71875 0.4375 -1.484375 0.625q-0.75 0.203125 -1.40625 0.203125q-1.859375 0 -2.96875 -1.0625q-1.109375 -1.0625 -1.109375 -2.953125q0 -1.875 1.0625 -3.0625q1.0625 -1.1875 2.84375 -1.1875q1.484375 0 2.3125 0.890625q0.828125 0.890625 0.828125 2.46875q0 0.234375 -0.015625 0.46875l-5.375 0q0 1.828125 0.859375 2.609375q0.859375 0.78125 2.671875 0.78125q0.8125 0 1.734375 -0.15625l0.046875 0.375zm-1.59375 -4.3125l0 -0.25q0 -1.203125 -0.390625 -1.71875q-0.390625 -0.515625 -1.140625 -0.515625q-1.015625 0 -1.546875 0.734375q-0.53125 0.71875 -0.59375 1.75l3.671875 0zm10.534637 -1.484375q0.109375 0.40625 0.109375 0.921875l0 3.015625q0 0.984375 0.015625 1.59375q0.015625 0.21875 0.21875 0.296875l0.859375 0.234375l0.015625 0.359375q-1.03125 -0.03125 -1.859375 -0.03125q-0.828125 0 -1.84375 0.03125l-0.03125 -0.359375l0.796875 -0.234375q0.25 -0.078125 0.25 -0.265625q0.015625 -0.125 0.015625 -0.53125l0 -3.6875q0 -1.046875 -0.484375 -1.5q-0.46875 -0.453125 -1.390625 -0.453125q-0.828125 0 -1.6875 0.5l0 3.6875q0 1.0625 0.03125 1.9375q0 0.25 0.171875 0.296875l0.890625 0.25l0.015625 0.359375q-1.046875 -0.03125 -1.875 -0.03125q-0.828125 0 -1.953125 0.03125l-0.046875 -0.359375l0.984375 -0.28125q0.203125 -0.0625 0.21875 -0.265625q0 -0.4375 0 -1.03125l0 -2.890625q0 -1.109375 -0.03125 -2.0625l-1.125 -0.296875l-0.046875 -0.296875q1.40625 -0.265625 2.6875 -0.578125l0.078125 0.046875l0 0.984375q1.390625 -1.03125 2.625 -1.03125q1.53125 0 2.203125 1.171875q1.34375 -1.171875 2.90625 -1.171875q1.171875 0 1.828125 0.671875q0.671875 0.65625 0.671875 1.890625l0 2.984375q0 1.078125 0.015625 1.578125q0.015625 0.234375 0.234375 0.296875l0.9375 0.28125l0.015625 0.359375q-1.109375 -0.03125 -1.9375 -0.03125q-0.84375 0 -1.859375 0.03125l-0.03125 -0.359375l0.84375 -0.234375q0.1875 -0.078125 0.21875 -0.265625q0.015625 -0.125 0.015625 -0.53125l0 -3.6875q0 -1.046875 -0.484375 -1.5q-0.484375 -0.453125 -1.421875 -0.453125q-0.953125 0 -1.765625 0.609375z" fill-rule="nonzero"/><path fill="#ffffff" d="m75.391075 320.77692l130.17322 0l0 93.22833l-130.17322 0z" fill-rule="evenodd"/><path stroke="#595959" stroke-width="1.0" stroke-linejoin="round" stroke-linecap="butt" d="m75.391075 320.77692l130.17322 0l0 93.22833l-130.17322 0z" fill-rule="evenodd"/><path fill="#000000" fill-opacity="0.0" d="m75.391075 347.18634l155.08661 0l0 40.409454l-155.08661 0z" fill-rule="evenodd"/><path fill="#000000" d="m90.766075 360.81073l3.765625 10.34375q0.203125 0.578125 0.375 0.796875q0.171875 0.203125 0.5 0.296875l0.796875 0.234375l0.015625 0.375q-1.109375 -0.03125 -2.0625 -0.03125q-0.953125 0 -2.265625 0.03125l-0.03125 -0.375l0.796875 -0.234375q0.171875 -0.0625 0.234375 -0.125q0.078125 -0.078125 0.078125 -0.234375q0 -0.15625 -0.09375 -0.4375q-0.078125 -0.28125 -0.25 -0.734375l-0.78125 -2.265625l-4.078125 0l-0.890625 2.265625q-0.1875 0.46875 -0.296875 0.75q-0.09375 0.28125 -0.09375 0.4375q0 0.140625 0.078125 0.21875q0.09375 0.0625 0.25 0.125l0.78125 0.21875l0.015625 0.390625q-1.203125 -0.03125 -1.953125 -0.03125q-0.765625 0 -1.703125 0.03125l-0.046875 -0.375l0.859375 -0.25q0.3125 -0.109375 0.46875 -0.3125q0.15625 -0.21875 0.34375 -0.671875l4.328125 -10.3125l0.859375 -0.125zm-2.6875 6.875l3.484375 0l-1.65625 -4.671875l-1.828125 4.671875zm14.4483185 -1.96875q-0.578125 -0.171875 -1.265625 -0.171875q-1.46875 0 -2.234375 0.828125q-0.75 0.8125 -0.75 2.5q0 1.4375 0.671875 2.3125q0.6875 0.859375 1.921875 0.859375q0.796875 0 1.65625 -0.4375l0 -5.890625zm-1.21875 -5.046875q1.5 -0.28125 2.75 -0.59375l0.078125 0.0625q-0.046875 1.8125 -0.046875 3.890625l0 4.609375q0 1.171875 0 2.3125q0 0.421875 0.03125 0.6875q0.03125 0.265625 0.140625 0.40625q0.125 0.140625 0.359375 0.1875q0.234375 0.046875 0.65625 0.0625l0.046875 0.328125q-0.375 0.140625 -0.890625 0.28125q-0.515625 0.15625 -0.703125 0.15625q-0.859375 0 -1.15625 -0.96875q-1.3125 0.96875 -2.546875 0.96875q-1.5625 0 -2.5 -1.109375q-0.9375 -1.109375 -0.9375 -2.734375q0 -2.109375 1.234375 -3.25q1.25 -1.15625 3.484375 -1.15625q0.546875 0 1.21875 0.125q0 -1.875 -0.03125 -3.640625l-1.15625 -0.34375l-0.03125 -0.28125zm11.05043 5.046875q-0.578125 -0.171875 -1.265625 -0.171875q-1.46875 0 -2.234375 0.828125q-0.75 0.8125 -0.75 2.5q0 1.4375 0.671875 2.3125q0.6875 0.859375 1.921875 0.859375q0.796875 0 1.65625 -0.4375l0 -5.890625zm-1.21875 -5.046875q1.5 -0.28125 2.75 -0.59375l0.078125 0.0625q-0.046875 1.8125 -0.046875 3.890625l0 4.609375q0 1.171875 0 2.3125q0 0.421875 0.03125 0.6875q0.03125 0.265625 0.140625 0.40625q0.125 0.140625 0.359375 0.1875q0.234375 0.046875 0.65625 0.0625l0.046875 0.328125q-0.375 0.140625 -0.890625 0.28125q-0.515625 0.15625 -0.703125 0.15625q-0.859375 0 -1.15625 -0.96875q-1.3125 0.96875 -2.546875 0.96875q-1.5625 0 -2.5 -1.109375q-0.9375 -1.109375 -0.9375 -2.734375q0 -2.109375 1.234375 -3.25q1.25 -1.15625 3.484375 -1.15625q0.546875 0 1.21875 0.125q0 -1.875 -0.03125 -3.640625l-1.15625 -0.34375l-0.03125 -0.28125zm11.683243 5.234375q-0.046875 2.859375 -0.046875 4.609375q0 0.875 0.25 1.21875q0.265625 0.328125 1.0 0.328125q0.59375 0 1.53125 -0.140625l0.046875 0.375q-1.46875 0.734375 -2.609375 0.734375q-0.921875 0 -1.375 -0.484375q-0.453125 -0.5 -0.453125 -1.5q0 -1.640625 0.0625 -5.1875l-1.171875 -0.296875l-0.046875 -0.34375l1.296875 -0.109375l0.59375 -2.046875q0.46875 -0.125 0.859375 -0.25l0.078125 0.0625q-0.015625 1.03125 -0.015625 1.921875l0 0.3125l2.546875 0l0 0.796875l-2.546875 0zm5.207161 2.921875q0 1.59375 0.59375 2.59375q0.59375 0.984375 1.765625 0.984375q1.09375 0 1.65625 -0.875q0.578125 -0.875 0.578125 -2.59375q0 -1.625 -0.609375 -2.546875q-0.59375 -0.9375 -1.734375 -0.9375q-1.09375 0 -1.671875 0.84375q-0.578125 0.84375 -0.578125 2.53125zm6.3125 -0.0625q0 1.921875 -1.171875 3.109375q-1.15625 1.1875 -2.953125 1.1875q-1.75 0 -2.8281326 -1.109375q-1.078125 -1.125 -1.078125 -2.9375q0 -1.859375 1.125 -3.03125q1.1406326 -1.1875 3.0000076 -1.1875q1.765625 0 2.828125 1.09375q1.078125 1.078125 1.078125 2.875zm14.573364 -4.828125l-0.34375 0.046875l-0.609375 -2.21875q-1.046875 -0.265625 -1.90625 -0.265625q-2.078125 0 -3.265625 1.453125q-1.171875 1.4375 -1.171875 3.75q0 2.46875 1.34375 3.953125q1.359375 1.46875 3.75 1.46875q1.34375 0 2.84375 -0.53125l0.078125 0.390625q-1.65625 1.140625 -3.765625 1.140625q-2.734375 0 -4.40625 -1.65625q-1.671875 -1.671875 -1.671875 -4.390625q0 -2.90625 1.84375 -4.59375q1.84375 -1.703125 4.8125 -1.703125q1.4375 0 2.9375 0.359375l0.046875 0.0625l-0.515625 2.734375zm6.536972 5.0625q-1.84375 0 -2.53125 0.359375q-0.671875 0.359375 -0.671875 1.234375q0 0.796875 0.4375 1.140625q0.453125 0.328125 1.234375 0.328125q0.859375 0 1.515625 -0.296875l0.015625 -2.765625zm-4.109375 -3.484375q1.65625 -0.71875 2.921875 -0.71875q1.296875 0 2.015625 0.671875q0.734375 0.671875 0.71875 1.953125l-0.046875 3.515625q0 0.4375 0.03125 0.703125q0.03125 0.25 0.140625 0.390625q0.125 0.140625 0.375 0.203125q0.25 0.046875 0.65625 0.0625l0.046875 0.328125q-0.359375 0.140625 -0.890625 0.28125q-0.515625 0.15625 -0.703125 0.15625q-0.828125 0 -1.125 -0.859375q-1.1875 0.859375 -2.234375 0.859375q-1.171875 0 -1.890625 -0.578125q-0.71875 -0.578125 -0.71875 -1.640625q0 -1.296875 1.15625 -1.90625q1.171875 -0.625 3.65625 -0.625l0.015625 -0.65625q0 -0.953125 -0.5 -1.40625q-0.484375 -0.46875 -1.5 -0.46875q-0.765625 0 -1.921875 0.296875l-0.203125 -0.5625zm7.692169 -0.140625q1.421875 -0.265625 2.6875 -0.578125l0.078125 0.046875l0 1.0q1.578125 -1.046875 3.078125 -1.046875l0.046875 0.046875q-0.25 1.265625 -0.484375 2.609375l-0.34375 0.0625q-0.234375 -0.71875 -0.453125 -1.15625q-0.21875 -0.4375 -0.6875 -0.4375q-0.46875 0 -1.15625 0.421875l0 3.671875q0 1.3125 0.03125 1.875q0 0.234375 0.203125 0.296875l1.125 0.3125l0.03125 0.359375q-1.328125 -0.03125 -2.15625 -0.03125q-0.828125 0 -1.953125 0.03125l-0.046875 -0.359375l0.984375 -0.28125q0.203125 -0.0625 0.21875 -0.265625q0 -0.359375 0 -1.03125l0 -2.890625q0 -1.375 -0.03125 -2.0625l-1.125 -0.296875l-0.046875 -0.296875zm9.1887665 0.53125q-0.046875 2.859375 -0.046875 4.609375q0 0.875 0.25 1.21875q0.265625 0.328125 1.0 0.328125q0.59375 0 1.53125 -0.140625l0.046875 0.375q-1.46875 0.734375 -2.609375 0.734375q-0.921875 0 -1.375 -0.484375q-0.453125 -0.5 -0.453125 -1.5q0 -1.640625 0.0625 -5.1875l-1.171875 -0.296875l-0.046875 -0.34375l1.296875 -0.109375l0.59375 -2.046875q0.46875 -0.125 0.859375 -0.25l0.078125 0.0625q-0.015625 1.03125 -0.015625 1.921875l0 0.3125l2.546875 0l0 0.796875l-2.546875 0z" fill-rule="nonzero"/><path fill="#ffffff" d="m506.6509 464.63516l0 0c0 -27.962128 22.484467 -50.629913 50.22049 -50.629913l0 0c13.319275 0 26.093079 5.334198 35.51123 14.829163c9.418152 9.494965 14.7092285 22.372864 14.7092285 35.80075l0 0c0 27.962128 -22.484436 50.629913 -50.22046 50.629913l0 0c-27.736023 0 -50.22049 -22.667786 -50.22049 -50.629913z" fill-rule="evenodd"/><path stroke="#595959" stroke-width="1.0" stroke-linejoin="round" stroke-linecap="butt" d="m506.6509 464.63516l0 0c0 -27.962128 22.484467 -50.629913 50.22049 -50.629913l0 0c13.319275 0 26.093079 5.334198 35.51123 14.829163c9.418152 9.494965 14.7092285 22.372864 14.7092285 35.80075l0 0c0 27.962128 -22.484436 50.629913 -50.22046 50.629913l0 0c-27.736023 0 -50.22049 -22.667786 -50.22049 -50.629913z" fill-rule="evenodd"/><path fill="#000000" fill-opacity="0.0" d="m525.937 443.6273l70.70868 0l0 42.015747l-70.70868 0z" fill-rule="evenodd"/><path fill="#000000" d="m538.09326 457.82855l2.203125 0q2.046875 0 4.3125 -0.03125l0.0625 0.0625l-0.53125 2.828125l-0.359375 0.0625l-0.578125 -2.109375l-4.203125 0l0 5.015625l0.828125 0q0.953125 0 2.109375 -0.03125q0.234375 0 0.3125 -0.234375l0.328125 -1.21875l0.484375 -0.03125q-0.03125 1.28125 -0.03125 1.890625q0 0.59375 0.03125 1.859375l-0.484375 0.03125l-0.328125 -1.234375q-0.078125 -0.25 -0.296875 -0.25q-1.171875 -0.015625 -2.140625 -0.015625l-0.8125 0l0 3.3125q0 1.015625 0.015625 2.0l4.375 0l1.109375 -2.328125l0.40625 -0.0625l-0.1875 3.171875l-0.078125 0.0625q-2.359375 -0.03125 -4.34375 -0.03125l-2.171875 0q-1.09375 0 -2.265625 0.03125l-0.03125 -0.390625l1.125 -0.34375q0.21875 -0.0625 0.25 -0.28125q0 -0.359375 0 -0.8125q0.015625 -0.453125 0.015625 -1.0l0 -7.390625q0 -0.46875 -0.015625 -0.828125q0 -0.375 0 -0.6875q-0.015625 -0.234375 -0.21875 -0.296875l-1.140625 -0.359375l-0.015625 -0.390625q1.171875 0.03125 2.265625 0.03125zm8.206177 4.703125q1.53125 -0.296875 2.890625 -0.640625l0.078125 0.0625l0 1.0625q1.59375 -1.125 2.953125 -1.125q1.296875 0 2.03125 0.734375q0.734375 0.71875 0.734375 2.046875l0 3.21875q0 1.140625 0.015625 1.6875q0.015625 0.234375 0.234375 0.3125l1.015625 0.3125l0.015625 0.375q-1.203125 -0.03125 -2.09375 -0.03125q-0.890625 0 -1.984375 0.03125l-0.03125 -0.375l0.90625 -0.265625q0.203125 -0.078125 0.234375 -0.28125q0 -0.125 0 -0.578125l0 -3.96875q0 -1.125 -0.546875 -1.609375q-0.53125 -0.484375 -1.578125 -0.484375q-0.921875 0 -1.90625 0.53125l0 3.96875q0 1.140625 0.03125 2.09375q0 0.25 0.203125 0.3125l0.953125 0.28125l0.015625 0.375q-1.125 -0.03125 -2.03125 -0.03125q-0.890625 0 -2.109375 0.03125l-0.03125 -0.375l1.078125 -0.3125q0.1875 -0.078125 0.203125 -0.28125q0.015625 -0.578125 0.015625 -1.125l0 -3.109375q0 -1.1875 -0.046875 -2.203125l-1.203125 -0.328125l-0.046875 -0.3125zm17.405396 0.359375q-0.609375 -0.1875 -1.359375 -0.1875q-1.578125 0 -2.40625 0.890625q-0.8125 0.890625 -0.8125 2.6875q0 1.5625 0.734375 2.5q0.734375 0.921875 2.0625 0.921875q0.859375 0 1.78125 -0.46875l0 -6.34375zm-1.3125 -5.421875q1.625 -0.3125 2.96875 -0.65625l0.078125 0.078125q-0.046875 1.953125 -0.046875 4.1875l0 4.953125q0 1.265625 0 2.5q0 0.453125 0.03125 0.734375q0.046875 0.28125 0.171875 0.4375q0.125 0.15625 0.375 0.21875q0.25 0.046875 0.703125 0.046875l0.046875 0.359375q-0.40625 0.15625 -0.96875 0.3125q-0.546875 0.15625 -0.75 0.15625q-0.921875 0 -1.25 -1.046875q-1.40625 1.046875 -2.734375 1.046875q-1.6875 0 -2.703125 -1.1875q-1.0 -1.203125 -1.0 -2.953125q0 -2.265625 1.34375 -3.5q1.34375 -1.234375 3.75 -1.234375q0.578125 0 1.296875 0.125q0 -2.015625 -0.03125 -3.921875l-1.234375 -0.359375l-0.046875 -0.296875z" fill-rule="nonzero"/><path fill="#000000" fill-opacity="0.0" d="m164.48236 177.84229l78.58269 -39.622055" fill-rule="evenodd"/><path stroke="#ffffff" stroke-width="1.0" stroke-linejoin="round" stroke-linecap="butt" d="m164.48236 177.8423l73.225174 -36.92076" fill-rule="evenodd"/><path fill="#ffffff" stroke="#ffffff" stroke-width="1.0" stroke-linecap="butt" d="m238.45117 142.39641l3.3085175 -3.51799l-4.7957916 0.56825256z" fill-rule="evenodd"/><path fill="#000000" fill-opacity="0.0" d="m377.27823 138.21523l114.519684 -3.2126007" fill-rule="evenodd"/><path stroke="#ffffff" stroke-width="1.0" stroke-linejoin="round" stroke-linecap="butt" d="m377.27823 138.21523l108.522064 -3.0443573" fill-rule="evenodd"/><path fill="#ffffff" stroke="#ffffff" stroke-width="1.0" stroke-linecap="butt" d="m485.8466 136.82196l4.48999 -1.7783356l-4.5826416 -1.5238342z" fill-rule="evenodd"/><path fill="#000000" fill-opacity="0.0" d="m625.16534 134.1811l85.44885 0.81889343" fill-rule="evenodd"/><path stroke="#ffffff" stroke-width="1.0" stroke-linejoin="round" stroke-linecap="butt" d="m625.16534 134.1811l79.4491 0.7613983" fill-rule="evenodd"/><path fill="#ffffff" stroke="#ffffff" stroke-width="1.0" stroke-linecap="butt" d="m704.59863 136.59416l4.553711 -1.6081696l-4.5220947 -1.6951447z" fill-rule="evenodd"/><path fill="#000000" fill-opacity="0.0" d="m775.7008 181.61417l33.35431 77.85828" fill-rule="evenodd"/><path stroke="#ffffff" stroke-width="1.0" stroke-linejoin="round" stroke-linecap="butt" d="m775.7008 181.61417l30.991638 72.34306" fill-rule="evenodd"/><path fill="#ffffff" stroke="#ffffff" stroke-width="1.0" stroke-linecap="butt" d="m805.17413 254.60765l3.3052979 3.5210114l-0.2687378 -4.821869z" fill-rule="evenodd"/><path fill="#000000" fill-opacity="0.0" d="m743.96326 306.08923l-87.433044 -0.72439575" fill-rule="evenodd"/><path stroke="#ffffff" stroke-width="1.0" stroke-linejoin="round" stroke-linecap="butt" d="m743.96326 306.08923l-81.43329 -0.67471313" fill-rule="evenodd"/><path fill="#ffffff" stroke="#ffffff" stroke-width="1.0" stroke-linecap="butt" d="m662.54364 303.76288l-4.5515747 1.6140747l4.524231 1.68927z" fill-rule="evenodd"/><path fill="#000000" fill-opacity="0.0" d="m518.3018 306.08923l-90.80313 -0.72439575" fill-rule="evenodd"/><path stroke="#ffffff" stroke-width="1.0" stroke-linejoin="round" stroke-linecap="butt" d="m518.3018 306.08923l-84.803345 -0.6765442" fill-rule="evenodd"/><path fill="#ffffff" stroke="#ffffff" stroke-width="1.0" stroke-linecap="butt" d="m433.5117 303.76102l-4.5511475 1.6154785l4.5247803 1.6878662z" fill-rule="evenodd"/><path fill="#000000" fill-opacity="0.0" d="m294.4357 300.57217l-82.29921 62.64566" fill-rule="evenodd"/><path stroke="#ffffff" stroke-width="1.0" stroke-linejoin="round" stroke-linecap="butt" d="m294.4357 300.57217l-77.524994 59.011566" fill-rule="evenodd"/><path fill="#ffffff" stroke="#ffffff" stroke-width="1.0" stroke-linecap="butt" d="m215.91028 358.26944l-2.61055 4.062958l4.6114044 -1.4343567z" fill-rule="evenodd"/><path fill="#ffffff" d="m294.4357 416.31497l130.17322 0l0 93.22833l-130.17322 0z" fill-rule="evenodd"/><path stroke="#595959" stroke-width="1.0" stroke-linejoin="round" stroke-linecap="butt" d="m294.4357 416.31497l130.17322 0l0 93.22833l-130.17322 0z" fill-rule="evenodd"/><path fill="#000000" fill-opacity="0.0" d="m294.4357 442.7244l155.08661 0l0 40.409454l-155.08661 0z" fill-rule="evenodd"/><path fill="#000000" d="m313.40445 459.4738l-0.34375 0.046875l-0.609375 -2.21875q-1.046875 -0.265625 -1.90625 -0.265625q-2.078125 0 -3.265625 1.453125q-1.171875 1.4375 -1.171875 3.75q0 2.46875 1.34375 3.953125q1.359375 1.46875 3.75 1.46875q1.34375 0 2.84375 -0.53125l0.078125 0.390625q-1.65625 1.140625 -3.765625 1.140625q-2.734375 0 -4.40625 -1.65625q-1.671875 -1.671875 -1.671875 -4.390625q0 -2.90625 1.84375 -4.59375q1.84375 -1.703125 4.8125 -1.703125q1.4375 0 2.9375 0.359375l0.046875 0.0625l-0.515625 2.734375zm1.7557068 -3.265625q1.375 -0.265625 2.75 -0.59375l0.078125 0.0625q-0.046875 0.796875 -0.046875 2.28125q0 1.46875 0 3.3125q1.46875 -0.9375 2.734375 -0.9375q1.171875 0 1.859375 0.65625q0.703125 0.65625 0.703125 1.921875l0 2.984375q0 0.96875 0.015625 1.5625q0.015625 0.21875 0.21875 0.296875l0.953125 0.28125l0.015625 0.359375q-1.125 -0.03125 -1.953125 -0.03125q-0.828125 0 -1.84375 0.03125l-0.03125 -0.359375l0.828125 -0.234375q0.203125 -0.078125 0.234375 -0.265625q0 -0.125 0 -0.53125l0 -3.6875q0 -1.046875 -0.5 -1.5q-0.5 -0.453125 -1.46875 -0.453125q-0.84375 0 -1.765625 0.40625l0 3.796875q0 1.046875 0.015625 1.921875q0 0.234375 0.203125 0.296875l0.890625 0.25l0.015625 0.359375q-1.0625 -0.03125 -1.90625 -0.03125q-0.828125 0 -1.953125 0.03125l-0.03125 -0.359375l0.953125 -0.265625q0.21875 -0.078125 0.234375 -0.28125q0.015625 -0.8125 0.015625 -2.0625l0 -3.546875q0 -1.71875 -0.015625 -3.046875q0 -1.328125 -0.03125 -2.0l-1.140625 -0.34375l-0.03125 -0.28125zm17.230713 11.5625q-0.71875 0.4375 -1.484375 0.625q-0.75 0.203125 -1.40625 0.203125q-1.859375 0 -2.96875 -1.0625q-1.109375 -1.0625 -1.109375 -2.953125q0 -1.875 1.0625 -3.0625q1.0625 -1.1875 2.84375 -1.1875q1.484375 0 2.3125 0.890625q0.828125 0.890625 0.828125 2.46875q0 0.234375 -0.015625 0.46875l-5.375 0q0 1.828125 0.859375 2.609375q0.859375 0.78125 2.671875 0.78125q0.8125 0 1.734375 -0.15625l0.046875 0.375zm-1.59375 -4.3125l0 -0.25q0 -1.203125 -0.390625 -1.71875q-0.390625 -0.515625 -1.140625 -0.515625q-1.015625 0 -1.546875 0.734375q-0.53125 0.71875 -0.59375 1.75l3.671875 0zm9.722137 4.3125q-0.53125 0.34375 -1.3125 0.59375q-0.765625 0.234375 -1.53125 0.234375q-1.828125 0 -2.890625 -1.0625q-1.0625 -1.078125 -1.0625 -2.859375q0 -1.9375 1.203125 -3.140625q1.21875 -1.203125 3.125 -1.203125q1.25 0 2.421875 0.5q-0.28125 1.140625 -0.5 2.3125l-0.328125 0.0625l-0.6875 -2.03125q-0.390625 -0.140625 -0.875 -0.140625q-1.265625 0 -1.984375 0.890625q-0.703125 0.875 -0.703125 2.3125q0 1.703125 0.796875 2.515625q0.8125 0.8125 2.546875 0.8125q0.8125 0 1.71875 -0.15625l0.0625 0.359375zm9.886261 0.625q-1.125 -0.03125 -1.671875 -0.03125q-0.375 0 -0.96875 0.015625q-0.3125 -0.515625 -0.75 -1.109375q-1.171875 -1.625 -2.515625 -3.1875l3.0625 -2.96875l-0.9375 -0.25l-0.03125 -0.34375q1.078125 0.03125 1.59375 0.03125q0.46875 0 1.78125 -0.03125l0.03125 0.34375q-0.859375 0.21875 -1.234375 0.390625q-0.375 0.15625 -0.859375 0.625l-1.8125 1.671875l2.71875 3.40625q0.453125 0.5625 0.703125 0.75q0.265625 0.1875 0.875 0.328125l0.015625 0.359375zm-8.875 -11.90625l-0.03125 -0.28125q1.484375 -0.28125 2.75 -0.59375l0.078125 0.0625q-0.046875 1.234375 -0.046875 3.84375l0 5.53125q0 1.25 0.015625 2.453125q0.015625 0.234375 0.21875 0.296875l0.8125 0.234375l0.03125 0.359375q-1.015625 -0.03125 -1.859375 -0.03125q-0.828125 0 -1.953125 0.03125l-0.03125 -0.359375l1.0 -0.296875q0.15625 -0.046875 0.1875 -0.25q0.015625 -0.953125 0.015625 -2.125l0 -3.484375q0 -4.390625 -0.046875 -5.046875l-1.140625 -0.34375zm10.83252 7.875q0 1.59375 0.59375 2.59375q0.59375 0.984375 1.765625 0.984375q1.09375 0 1.65625 -0.875q0.578125 -0.875 0.578125 -2.59375q0 -1.625 -0.609375 -2.546875q-0.59375 -0.9375 -1.734375 -0.9375q-1.09375 0 -1.671875 0.84375q-0.578125 0.84375 -0.578125 2.53125zm6.3125 -0.0625q0 1.921875 -1.171875 3.109375q-1.15625 1.1875 -2.953125 1.1875q-1.75 0 -2.828125 -1.109375q-1.078125 -1.125 -1.078125 -2.9375q0 -1.859375 1.125 -3.03125q1.140625 -1.1875 3.0 -1.1875q1.765625 0 2.828125 1.09375q1.078125 1.078125 1.078125 2.875zm7.413208 3.3125q-1.3125 0.984375 -2.640625 0.984375q-1.328125 0 -2.0 -0.671875q-0.65625 -0.671875 -0.65625 -1.90625l0 -1.796875q0 -1.8125 -0.03125 -2.71875l-1.125 -0.296875l-0.046875 -0.296875q1.484375 -0.265625 2.75 -0.578125l0.0625 0.046875q-0.046875 1.0 -0.046875 2.546875l0 2.703125q0 1.015625 0.484375 1.484375q0.484375 0.453125 1.359375 0.453125q0.890625 0 1.8125 -0.46875l0 -3.59375q0 -1.1875 -0.046875 -2.0l-1.109375 -0.296875l-0.046875 -0.296875q1.46875 -0.265625 2.734375 -0.578125l0.078125 0.046875q-0.046875 1.015625 -0.046875 2.609375q0 3.0625 0.015625 3.734375q0 0.359375 0.046875 0.578125q0.046875 0.203125 0.15625 0.3125q0.125 0.109375 0.359375 0.15625q0.234375 0.046875 0.625 0.0625l0.03125 0.328125q-0.390625 0.15625 -0.890625 0.296875q-0.5 0.140625 -0.6875 0.140625q-0.859375 0 -1.140625 -0.984375zm6.162384 -6.171875q-0.046875 2.859375 -0.046875 4.609375q0 0.875 0.25 1.21875q0.265625 0.328125 1.0 0.328125q0.59375 0 1.53125 -0.140625l0.046875 0.375q-1.46875 0.734375 -2.609375 0.734375q-0.921875 0 -1.375 -0.484375q-0.453125 -0.5 -0.453125 -1.5q0 -1.640625 0.0625 -5.1875l-1.171875 -0.296875l-0.046875 -0.34375l1.296875 -0.109375l0.59375 -2.046875q0.46875 -0.125 0.859375 -0.25l0.078125 0.0625q-0.015625 1.03125 -0.015625 1.921875l0 0.3125l2.546875 0l0 0.796875l-2.546875 0z" fill-rule="nonzero"/><path fill="#000000" fill-opacity="0.0" d="m140.47769 414.00525l153.95276 48.91339" fill-rule="evenodd"/><path stroke="#ffffff" stroke-width="1.0" stroke-linejoin="round" stroke-linecap="butt" d="m140.47769 414.00525l148.23444 47.09659" fill-rule="evenodd"/><path fill="#ffffff" stroke="#ffffff" stroke-width="1.0" stroke-linecap="butt" d="m288.21198 462.67603l4.8251953 -0.20004272l-3.8248901 -2.9483337z" fill-rule="evenodd"/><path fill="#000000" fill-opacity="0.0" d="m416.25723 462.8714l90.39368 1.7637634" fill-rule="evenodd"/><path stroke="#ffffff" stroke-width="1.0" stroke-linejoin="round" stroke-linecap="butt" d="m416.25723 462.8714l84.39484 1.6467285" fill-rule="evenodd"/><path fill="#ffffff" stroke="#ffffff" stroke-width="1.0" stroke-linecap="butt" d="m500.61984 466.16953l4.569458 -1.5628662l-4.505005 -1.7399597z" fill-rule="evenodd"/></g></svg>